<?xml version="1.0" encoding="utf-8"?>
<!-- Generator: Adobe Illustrator 23.0.1, SVG Export Plug-In . SVG Version: 6.00 Build 0)  -->
<svg version="1.1" id="Layer_1" xmlns="http://www.w3.org/2000/svg" xmlns:xlink="http://www.w3.org/1999/xlink" x="0px" y="0px"
	 viewBox="0 0 944 681" style="enable-background:new 0 0 944 681;" xml:space="preserve">
<style type="text/css">
	.st0{fill:#FFFFFF;}
	.st1{fill:#F7CD80;}
</style>
<g>
	<path class="st0" d="M546.3,638.3c7.9,0,13.9,6.1,13.9,14.3c0,8.2-5.9,14.3-13.9,14.3c-7.9,0-13.9-6.1-13.9-14.3
		C532.4,644.4,538.3,638.3,546.3,638.3z M546.3,661.7c5,0,8.4-4,8.4-9.1c0-5-3.5-9.1-8.4-9.1c-5,0-8.4,4-8.4,9.1
		C537.8,657.6,541.3,661.7,546.3,661.7z"/>
	<path class="st0" d="M603.3,653.8c0,0-0.1,0-0.1,0c0,0-0.1,0-0.1,0.1c0,0,0,0.1-0.1,0.1c0,0,0,0.1,0,0.1c0.2,2.2,1.2,4.2,2.8,5.7
		c1.6,1.5,3.7,2.3,5.8,2.3c1.4,0,2.8-0.3,4.1-0.9c1.3-0.6,2.4-1.5,3.4-2.6c0,0,0.1,0,0.1-0.1c0,0,0.1,0,0.1,0c0,0,0.1,0,0.1,0
		c0,0,0.1,0,0.1,0.1l3.1,3.1c0.1,0,0.1,0.1,0.1,0.2c0,0.1,0,0.1-0.1,0.2c-2,2.6-5.8,4.9-11.1,4.9c-7.8,0-13.9-6.1-13.9-14.3
		c0-8.2,5.5-14.3,13.1-14.3c7.5,0,12.9,6.2,12.9,14.3c0,0.4,0,0.8-0.1,1.2L603.3,653.8z M603.5,649.1h14.6c-0.4-1.7-1.3-3.1-2.5-4.2
		c-1.3-1.1-2.9-1.7-4.5-1.7c-1.7,0-3.4,0.6-4.8,1.7C604.9,645.9,603.9,647.4,603.5,649.1L603.5,649.1z"/>
	<path class="st0" d="M578.9,638.3h-0.6c-1.5,0-2.9,0.3-4.2,0.8c-1.2,0.4-2.3,1-3.4,1.8c0,0-0.1,0-0.1,0.1c0,0-0.1,0-0.1,0
		c0,0-0.1-0.1-0.1-0.1c0,0,0-0.1,0-0.1v-1.5c0-0.1,0-0.1-0.1-0.2c-0.1-0.1-0.1-0.1-0.2-0.1h-4.7c-0.1,0-0.1,0-0.2,0.1
		c-0.1,0.1-0.1,0.1-0.1,0.2v40.8c0,0,0,0.1,0,0.1c0,0,0,0.1,0.1,0.1c0,0,0.1,0,0.1,0.1c0,0,0.1,0,0.1,0h4.9c0,0,0.1,0,0.1,0
		c0,0,0.1,0,0.1-0.1c0,0,0-0.1,0.1-0.1c0,0,0-0.1,0-0.1v-15.2c0-0.1,0-0.1,0-0.1c0,0,0.1-0.1,0.1-0.1c0,0,0.1,0,0.1,0
		c0,0,0.1,0,0.1,0c2.4,1.6,5.2,2.5,8,2.5c7.9,0,13.9-6.1,13.9-14.3S586.9,638.3,578.9,638.3z M578.9,661.7c-5,0-8.4-4-8.4-9.1
		c0-5,3.5-9.1,8.4-9.1s8.4,4,8.4,9.1C587.4,657.7,583.9,661.7,578.9,661.7z"/>
	<path class="st0" d="M700.5,656.1l-7.2,10.2c0,0-0.1,0.1-0.1,0.1s-0.1,0-0.1,0h-5.8c0,0-0.1,0-0.1,0c0,0-0.1-0.1-0.1-0.1
		c0,0,0-0.1,0-0.1c0-0.1,0-0.1,0.1-0.1l9.7-13.7c0.1-0.1,0.1-0.2,0.1-0.3c0-0.1,0-0.2-0.1-0.3l-8.7-12.3c0,0,0-0.1,0-0.1
		c0-0.1,0-0.1,0-0.1c0,0,0.1-0.1,0.1-0.1c0,0,0.1,0,0.1,0h5.7c0,0,0.1,0,0.1,0c0,0,0.1,0,0.1,0.1l6.2,8.8l6.2-8.8
		c0,0,0.1-0.1,0.1-0.1c0,0,0.1,0,0.1,0h5.7c0,0,0.1,0,0.1,0c0,0,0.1,0.1,0.1,0.1c0,0,0,0.1,0,0.1c0,0.1,0,0.1,0,0.1l-8.7,12.3
		c-0.1,0.1-0.1,0.2-0.1,0.3c0,0.1,0,0.2,0.1,0.3l9.7,13.7c0,0,0,0.1,0,0.1c0,0.1,0,0.1,0,0.1c0,0-0.1,0.1-0.1,0.1s-0.1,0-0.1,0h-5.8
		c0,0-0.1,0-0.1,0c0,0-0.1,0-0.1-0.1L700.5,656.1z"/>
	<path class="st0" d="M730,638.3c7.9,0,13.9,6.1,13.9,14.3c0,8.2-5.9,14.3-13.9,14.3c-7.9,0-13.9-6.1-13.9-14.3
		C716.1,644.4,722,638.3,730,638.3z M730,661.7c5,0,8.5-4,8.5-9.1c0-5-3.5-9.1-8.5-9.1c-5,0-8.4,4-8.4,9.1
		C721.5,657.6,725,661.7,730,661.7z"/>
	<path class="st0" d="M664,653.8c0,0-0.1,0-0.1,0c0,0-0.1,0-0.1,0.1c0,0,0,0.1-0.1,0.1c0,0,0,0.1,0,0.1c0.2,2.2,1.2,4.2,2.8,5.7
		c1.6,1.5,3.7,2.3,5.8,2.3c1.4,0,2.8-0.3,4.2-0.9c1.3-0.6,2.5-1.5,3.4-2.6c0,0,0.1,0,0.1-0.1c0,0,0.1,0,0.1,0c0,0,0.1,0,0.1,0
		c0,0,0.1,0,0.1,0.1l3.1,3.1c0,0.1,0.1,0.1,0.1,0.2s0,0.1-0.1,0.2c-2,2.6-5.8,4.9-11.1,4.9c-7.8,0-13.9-6.1-13.9-14.3
		c0-8.2,5.5-14.3,13.1-14.3c7.5,0,12.9,6.2,12.9,14.3c0,0.4,0,0.8-0.1,1.2L664,653.8z M664.1,649.1h14.6c-0.4-1.7-1.3-3.1-2.5-4.2
		c-1.3-1.1-2.9-1.7-4.5-1.7c-1.7,0-3.4,0.6-4.8,1.7C665.5,645.9,664.6,647.4,664.1,649.1L664.1,649.1z"/>
	<path class="st0" d="M630.7,638.9h5c0.1,0,0.1,0,0.2,0.1c0.1,0.1,0.1,0.1,0.1,0.2v2.6c0,0.1,0,0.1,0,0.2c0,0,0.1,0.1,0.1,0.1
		s0.1,0,0.2,0c0.1,0,0.1,0,0.1-0.1c0.9-1.1,2.1-2,3.4-2.7c1.3-0.6,2.7-0.9,4.2-0.9c6.8,0,9.6,5.4,9.6,11.2v16.5c0,0.1,0,0.1-0.1,0.2
		c-0.1,0.1-0.1,0.1-0.2,0.1h-5c-0.1,0-0.1,0-0.2-0.1c-0.1-0.1-0.1-0.1-0.1-0.2v-15.7c0-4.1-2-6.8-5.6-6.8c-4,0-6.5,2.3-6.5,7.3v15.2
		c0,0.1,0,0.1-0.1,0.2c0,0.1-0.1,0.1-0.2,0.1h-5c-0.1,0-0.1,0-0.2-0.1c-0.1-0.1-0.1-0.1-0.1-0.2v-26.9c0-0.1,0-0.1,0.1-0.2
		C630.5,638.9,630.6,638.9,630.7,638.9L630.7,638.9z"/>
	<path class="st0" d="M503.1,656c1.2-2.1,1.8-4.4,1.8-6.7c0-4.1-1.5-7.9-4.3-10.6c-3.2-3.1-7.8-4.7-13.4-4.6
		c-10,0.2-21,7.8-21.8,21.3c0,0.5,0.1,0.9,0.5,1.3c0.3,0.3,0.7,0.5,1.2,0.5h4.3c0.1-1.8,0.3-3.1,0.3-3.3c1.4-8.6,7.8-14.2,16.1-14.2
		c2.5,0,5,0.6,7.3,1.9c4.1,2.2,6.8,7,6.6,11.6v0.4c-0.1,2.7-1.1,5-2.8,6.8C500.6,659.2,502.1,657.7,503.1,656z"/>
	<path class="st0" d="M498.8,646.9c-1.1-1.8-2.6-3.4-4.3-4.3c-2.1-1.2-4.4-1.8-6.7-1.8c-4.1,0-7.9,1.5-10.6,4.3
		c-3.1,3.2-4.8,7.8-4.6,13.4c0.2,10,7.8,21,21.3,21.8c0.5,0,0.9-0.1,1.3-0.5c0.3-0.3,0.5-0.7,0.5-1.2v-4.3c-1.8-0.1-3.1-0.3-3.3-0.3
		c-8.6-1.4-14.2-7.8-14.2-16.1c0-2.5,0.6-5,1.9-7.3c2.2-4.1,7-6.8,11.6-6.6h0.4C494.7,644.2,497,645.1,498.8,646.9z"/>
	<path class="st0" d="M481,651.2c-1.2,2.1-1.8,4.4-1.8,6.7c0,4.1,1.5,7.9,4.3,10.6c3.2,3.1,7.8,4.7,13.4,4.6
		c10-0.2,21-7.8,21.8-21.3c0-0.5-0.1-0.9-0.5-1.3c-0.3-0.3-0.7-0.5-1.2-0.5h-4.3c-0.1,1.8-0.3,3.1-0.3,3.3
		c-1.4,8.6-7.8,14.2-16.1,14.2c-2.5,0-5-0.6-7.3-1.9c-4.1-2.2-6.8-7-6.6-11.6c0-2.9,1-5.3,2.8-7.2C483.5,647.9,482,649.4,481,651.2z
		"/>
	<path class="st0" d="M511.6,648.8c-0.2-10-7.8-21-21.3-21.8c-0.5,0-0.9,0.1-1.3,0.5c-0.3,0.3-0.5,0.7-0.5,1.2v4.3
		c1.8,0.1,3.1,0.3,3.3,0.3c8.6,1.4,14.2,7.8,14.2,16.1c0,2.5-0.6,5-1.9,7.3c-2.3,4.1-7,6.8-11.6,6.6h-0.4c-2.7-0.1-5-1.1-6.8-2.8
		c1.1,1.8,2.6,3.4,4.3,4.3c2.1,1.2,4.4,1.8,6.7,1.8c4.1,0,7.9-1.5,10.6-4.3C510.1,658.9,511.7,654.3,511.6,648.8z"/>
	<path class="st0" d="M199.4,631.8h9.2c6.8,0,11.3,3.5,11.3,9.5s-4.5,9.4-11.3,9.4h-5.9v14.7h-3.2L199.4,631.8z M208.6,647.7
		c5.3,0,8-2.2,8-6.3s-2.8-6.4-8-6.4h-5.9v12.7H208.6z"/>
	<path class="st0" d="M222.6,653.5c0.1-2.2,0.9-4.4,2.3-6.2c1.4-1.8,3.2-3.2,5.3-3.9c2.1-0.8,4.4-0.9,6.6-0.3
		c2.2,0.5,4.2,1.7,5.7,3.3c1.5,1.6,2.6,3.7,2.9,5.9c0.4,2.2,0.1,4.5-0.8,6.6c-0.9,2.1-2.4,3.8-4.3,5c-1.9,1.2-4.1,1.9-6.3,1.9
		c-1.6,0-3.1-0.3-4.6-1c-1.4-0.6-2.7-1.5-3.8-2.7c-1.1-1.1-1.9-2.5-2.4-4C222.7,656.6,222.5,655,222.6,653.5L222.6,653.5z
		 M242.3,653.5c0-5.3-3.1-9.4-8.3-9.4c-5.2,0-8.2,4.2-8.2,9.4s3.1,9.5,8.2,9.5S242.3,658.7,242.3,653.5z"/>
	<path class="st0" d="M248.5,641.6h3.4l5.3,19l6.4-19h2.9l6.3,19l5.3-19h3.4l-6.9,23.9h-3l-6.5-19.4l-6.5,19.5h-3L248.5,641.6z"/>
	<path class="st0" d="M284.2,653.6c0-6.7,3.8-12.4,10.6-12.4c7.7,0,10.3,6.3,10.3,11c0,0.7,0,1.4-0.2,2.1h-17.4
		c0.2,5.3,3,8.5,7.8,8.5c1.3,0.1,2.6-0.2,3.8-0.7c1.2-0.5,2.3-1.3,3.1-2.3l2.2,1.9c-1.1,1.3-2.6,2.3-4.1,3c-1.6,0.7-3.3,1-5,0.9
		C288.1,665.7,284.2,660.5,284.2,653.6z M302.1,652c0.1-0.5,0.1-1,0-1.5c0-0.9-0.2-1.8-0.6-2.6c-0.4-0.8-0.9-1.6-1.6-2.2
		c-0.7-0.6-1.4-1.1-2.3-1.4c-0.8-0.3-1.7-0.4-2.6-0.4c-4.3,0-6.9,3.3-7.3,8.1H302.1z"/>
	<path class="st0" d="M311.7,641.6h3v4.9c0.5-1.5,1.5-2.9,2.8-3.8c1.3-1,2.9-1.5,4.5-1.5c1.3,0,2.6,0.4,3.7,1.1l-1.4,2.7
		c-0.8-0.4-1.7-0.7-2.7-0.7c-3.2,0-6.9,2.5-6.9,9v12.1h-3L311.7,641.6z"/>
	<path class="st0" d="M326.9,653.6c0-6.7,3.8-12.4,10.6-12.4c7.7,0,10.3,6.3,10.3,11c0,0.7,0,1.4-0.2,2.1h-17.5
		c0.2,5.3,3,8.5,7.8,8.5c1.3,0.1,2.6-0.2,3.8-0.7c1.2-0.5,2.3-1.3,3.1-2.3l2.2,1.9c-1.1,1.3-2.6,2.3-4.1,3s-3.3,1-5,0.9
		C330.9,665.7,326.9,660.5,326.9,653.6z M344.8,652c0.1-0.5,0.1-1,0-1.5c0-0.9-0.2-1.8-0.6-2.6c-0.4-0.8-0.9-1.6-1.6-2.2
		c-0.7-0.6-1.4-1.1-2.3-1.4c-0.8-0.3-1.7-0.4-2.6-0.4c-4.3,0-6.9,3.3-7.3,8.1H344.8z"/>
	<path class="st0" d="M352.4,653.5c0-6.7,4.2-12.2,10.6-12.2c1.8,0,3.6,0.5,5.1,1.5c1.5,1,2.7,2.4,3.4,4.1v-15.1h3.2v33.6h-3v-5.3
		c-0.7,1.7-1.9,3.2-3.4,4.2c-1.5,1-3.3,1.6-5.2,1.5C356.5,665.7,352.4,660.2,352.4,653.5z M371.7,653.5c0-5.3-3-9.4-8-9.4
		s-8.1,4.1-8.1,9.4s3.2,9.4,8.1,9.4C368.7,662.9,371.7,658.8,371.7,653.5L371.7,653.5z"/>
	<path class="st0" d="M399,660.1v5.3h-3.2v-33.6h3.2v15.1c0.7-1.7,1.9-3.1,3.4-4.1s3.3-1.5,5.1-1.5c6.4,0,10.1,5.5,10.1,12.2
		c0,6.7-3.7,12.2-10,12.2c-1.8,0-3.6-0.5-5.1-1.5C400.8,663.3,399.7,661.8,399,660.1L399,660.1z M414.4,653.5c0-5.3-2.7-9.4-7.6-9.4
		c-5,0-8,4.1-8,9.4c0,5.3,3.1,9.3,8,9.3C411.6,662.8,414.4,658.8,414.4,653.5L414.4,653.5z"/>
	<path class="st0" d="M429.8,665.1l-10.1-23.5h3.4l8.3,19.8l7.3-19.8h3.4l-13,33.9h-3.4L429.8,665.1z"/>
</g>
<g>
	<path class="st1" d="M294.5,558.9V456.5h31.5c9,0,17.1,2,24.1,6.1c7.1,4,12.7,9.8,16.7,17.3c4,7.5,6,16,6,25.5v4.7
		c0,9.5-2,18-5.9,25.4c-3.9,7.4-9.4,13.2-16.5,17.2c-7.1,4.1-15.2,6.1-24.1,6.2H294.5z M315.6,473.6V542h10.2
		c8.3,0,14.6-2.7,18.9-8.1s6.6-13.1,6.7-23.2v-5.4c0-10.4-2.2-18.3-6.5-23.6c-4.3-5.4-10.6-8.1-18.9-8.1H315.6z"/>
	<path class="st1" d="M432.5,551.2c-5,6.1-12,9.1-20.8,9.1c-8.2,0-14.4-2.3-18.7-7c-4.3-4.7-6.5-11.6-6.5-20.6v-49.9h20.3V532
		c0,7.9,3.6,11.9,10.8,11.9c6.9,0,11.6-2.4,14.2-7.2v-53.9h20.4v76.1h-19.1L432.5,551.2z"/>
	<path class="st1" d="M536.2,521.6c0,12.2-2.6,21.7-7.8,28.6c-5.2,6.8-12.5,10.2-21.8,10.2c-8.3,0-14.8-3.2-19.8-9.5l-0.9,8.1h-18.3
		V450.8h20.3v38.8c4.7-5.5,10.9-8.2,18.5-8.2c9.3,0,16.6,3.4,21.8,10.3c5.3,6.8,8,16.4,8,28.8V521.6z M515.8,520.1
		c0-7.7-1.2-13.3-3.7-16.8c-2.4-3.6-6.1-5.3-10.9-5.3c-6.5,0-10.9,2.7-13.4,8v30c2.5,5.3,7,8,13.5,8c6.6,0,10.9-3.2,12.9-9.7
		C515.4,531.1,515.8,526.4,515.8,520.1z"/>
	<path class="st1" d="M592.9,558.9c-0.9-1.8-1.6-4.1-2-6.8c-4.9,5.5-11.3,8.2-19.2,8.2c-7.5,0-13.7-2.2-18.6-6.5
		c-4.9-4.3-7.3-9.8-7.3-16.3c0-8.1,3-14.3,8.9-18.6c6-4.3,14.7-6.5,26-6.5h9.4V508c0-3.5-0.9-6.3-2.7-8.4c-1.8-2.1-4.6-3.2-8.5-3.2
		c-3.4,0-6.1,0.8-8.1,2.5c-1.9,1.6-2.9,3.9-2.9,6.8h-20.3c0-4.4,1.4-8.5,4.1-12.2c2.7-3.8,6.6-6.7,11.5-8.8c5-2.2,10.6-3.2,16.7-3.2
		c9.4,0,16.8,2.4,22.3,7.1c5.5,4.7,8.3,11.3,8.3,19.8v33c0,7.2,1.1,12.7,3,16.4v1.2H592.9z M576.1,544.8c3,0,5.8-0.7,8.3-2
		c2.5-1.4,4.4-3.2,5.6-5.4v-13.1h-7.6c-10.2,0-15.6,3.5-16.3,10.6l-0.1,1.2c0,2.5,0.9,4.6,2.7,6.3C570.5,544,573,544.8,576.1,544.8z
		"/>
	<path class="st1" d="M647.5,558.9h-20.4v-76.1h20.4V558.9z M625.9,463.1c0-3.1,1-5.6,3-7.5c2.1-2,4.9-3,8.4-3c3.5,0,6.2,1,8.3,3
		c2.1,2,3.1,4.5,3.1,7.5c0,3.1-1.1,5.6-3.2,7.6c-2.1,2-4.8,3-8.2,3c-3.4,0-6.2-1-8.3-3C626.9,468.7,625.9,466.2,625.9,463.1z"/>
</g>
<g>
	<path class="st0" d="M175.7,355.7l-22.9,31.8c-0.1,0.1-0.2,0.2-0.3,0.3c-0.1,0.1-0.3,0.1-0.4,0.1h-18.6c-0.2,0-0.3,0-0.5-0.1
		c-0.1-0.1-0.2-0.2-0.3-0.3c-0.1-0.1-0.1-0.3-0.1-0.5c0-0.2,0.1-0.3,0.2-0.4l30.9-42.8c0.2-0.2,0.3-0.5,0.3-0.8
		c0-0.3-0.1-0.6-0.3-0.8l-27.8-38.5c-0.1-0.1-0.1-0.3-0.2-0.4c0-0.2,0-0.3,0.1-0.5c0.1-0.1,0.2-0.3,0.3-0.3c0.1-0.1,0.3-0.1,0.5-0.1
		h18.3c0.1,0,0.3,0,0.4,0.1c0.1,0.1,0.2,0.2,0.3,0.3l20,27.3l20-27.3c0.1-0.1,0.2-0.2,0.3-0.3c0.1-0.1,0.3-0.1,0.4-0.1h18.3
		c0.2,0,0.3,0,0.5,0.1c0.1,0.1,0.2,0.2,0.3,0.3c0.1,0.1,0.1,0.3,0.1,0.5c0,0.2-0.1,0.3-0.2,0.4L187.5,342c-0.2,0.2-0.3,0.5-0.3,0.8
		c0,0.3,0.1,0.6,0.3,0.8l30.9,42.8c0.1,0.1,0.1,0.3,0.2,0.4c0,0.2,0,0.3-0.1,0.5c-0.1,0.1-0.2,0.3-0.3,0.3c-0.1,0.1-0.3,0.1-0.5,0.1
		h-18.6c-0.1,0-0.3,0-0.4-0.1c-0.1-0.1-0.2-0.1-0.3-0.3L175.7,355.7z"/>
	<path class="st0" d="M270.1,300.2c25.3,0,44.3,19.1,44.3,44.7c0,25.5-19,44.7-44.3,44.7s-44.3-19.1-44.3-44.7
		C225.8,319.4,244.8,300.2,270.1,300.2z M270.1,373.2c15.9,0,27-12.6,27-28.3c0-15.7-11.1-28.3-27-28.3s-27,12.6-27,28.3
		C243.1,360.6,254.3,373.2,270.1,373.2z"/>
	<path class="st0" d="M59.1,348.6c-0.1,0-0.2,0-0.4,0.1c-0.1,0-0.2,0.1-0.3,0.2c-0.1,0.1-0.1,0.2-0.2,0.3c0,0.1-0.1,0.2-0.1,0.4
		c0.7,6.9,3.9,13.2,9,17.8c5.1,4.6,11.8,7.1,18.7,7.1c4.6,0.1,9.1-0.9,13.3-2.8c4.2-1.9,7.8-4.7,10.8-8.2c0.1-0.1,0.2-0.1,0.3-0.2
		c0.1,0,0.2-0.1,0.3-0.1s0.2,0,0.3,0.1c0.1,0,0.2,0.1,0.3,0.2l10.1,9.6c0.2,0.2,0.2,0.4,0.2,0.6c0,0.2-0.1,0.4-0.2,0.6
		c-6.5,8-18.6,15.4-35.6,15.4c-5.9,0.1-11.7-1-17.2-3.2c-5.4-2.2-10.4-5.5-14.5-9.7c-4.1-4.2-7.4-9.1-9.6-14.6
		c-2.2-5.5-3.2-11.3-3-17.2c0-25.7,17.5-44.7,41.8-44.7c23.9,0,41.2,19.3,41.2,44.7c0,1.2-0.1,2.4-0.2,3.7L59.1,348.6z M59.5,334
		h46.7c-1.2-5.2-4-9.8-8.1-13.2c-4.1-3.4-9.2-5.3-14.5-5.4c-5.5,0-10.9,1.8-15.2,5.2C64.1,323.9,60.9,328.6,59.5,334L59.5,334z"/>
	<path class="st0" d="M366.5,334.9h-0.4c-9.5-2.7-17.7-4.8-17.7-11.7c0-5.9,5.8-9.8,14.5-9.8c4,0,7.9,1.1,11.2,3.2s6.1,5.1,7.8,8.7
		c0.2,0.3,0.4,0.5,0.7,0.6c0.3,0.1,0.6,0.1,0.9-0.1l11.2-6c0.1-0.1,0.3-0.2,0.4-0.3c0.1-0.1,0.2-0.3,0.2-0.4
		c0.1-0.1,0.1-0.3,0.1-0.5c0-0.2,0-0.3-0.1-0.5c-3-5.8-7.6-10.6-13.2-13.9c-5.6-3.3-12.1-4.9-18.6-4.7c-15.6,0-31.3,8-31.3,25.6
		s15,21.6,28.2,24.9c10.2,2.7,19.1,4.8,19.1,12.9c0,5.8-4.3,12.6-16.5,12.6c-4.7,0.1-9.4-1.3-13.3-4c-3.9-2.7-6.8-6.6-8.2-11.2
		c-0.1-0.2-0.1-0.3-0.3-0.4c-0.1-0.1-0.3-0.2-0.4-0.3c-0.2-0.1-0.3-0.1-0.5-0.1c-0.2,0-0.3,0-0.5,0.1l-11.7,5.1
		c-0.3,0.1-0.5,0.3-0.6,0.6c-0.1,0.3-0.1,0.6,0,0.9c4.7,14.2,19.2,23.9,36.2,23.9c16.2,0,32.5-8.6,32.5-27.9
		C396.3,343,380.4,338.6,366.5,334.9z"/>
	<path class="st0" d="M486.3,302.1H472c-0.3,0-0.6,0.1-0.9,0.3s-0.4,0.5-0.4,0.8V351c0,14.6-7.7,23-21.1,23
		c-11.7,0-18.4-8-18.4-21.7v-49c0-0.3-0.1-0.6-0.4-0.8s-0.5-0.3-0.9-0.3h-14.3c-0.3,0-0.6,0.1-0.9,0.3s-0.4,0.5-0.4,0.8V355
		c0.3,21.9,12,34.9,31.3,34.9c4.8,0.1,9.5-0.9,13.9-3c4.3-2,8.1-5,11.1-8.8v8.3c0,0.3,0.1,0.6,0.4,0.8s0.5,0.3,0.9,0.3h14.3
		c0.3,0,0.6-0.1,0.9-0.3s0.4-0.5,0.4-0.8v-83.2c0-0.3-0.1-0.6-0.4-0.8S486.6,302.1,486.3,302.1L486.3,302.1z"/>
	<path class="st0" d="M606.2,299.3c-5.6-0.2-11.2,1.2-16.1,4c-4.9,2.8-8.9,6.9-11.6,11.9c-4.4-10.2-13.7-15.9-26-15.9
		c-4.6-0.2-9.1,0.8-13.3,2.8c-4.1,2-7.7,5-10.3,8.8V302c0-0.2,0-0.3-0.1-0.5c-0.1-0.1-0.2-0.3-0.3-0.4c-0.1-0.1-0.2-0.2-0.4-0.3
		c-0.2-0.1-0.3-0.1-0.5-0.1h-14c-0.3,0-0.6,0.1-0.8,0.3c-0.2,0.2-0.4,0.5-0.4,0.9v84.5c0,0.3,0.1,0.6,0.3,0.8s0.5,0.3,0.8,0.3H528
		c0.3,0,0.6-0.1,0.9-0.3c0.2-0.2,0.4-0.5,0.4-0.8v-48.6c0-13.6,8.1-22.7,20.2-22.7c11.1,0,16.8,7.2,16.8,21.2v50.1
		c0,0.3,0.1,0.6,0.3,0.8s0.5,0.3,0.8,0.3h14.5c0.3,0,0.6-0.1,0.8-0.3s0.4-0.5,0.4-0.8v-48.6c0-13.6,8.1-22.7,20.1-22.7
		c11.5,0,16.9,7.5,16.9,23.5v47.7c0,0.3,0.1,0.6,0.4,0.8c0.2,0.2,0.5,0.3,0.9,0.3h14.5c0.3,0,0.6-0.1,0.8-0.3s0.3-0.5,0.3-0.8V337
		C637.2,313.1,626,299.3,606.2,299.3z"/>
	<path class="st0" d="M755.9,299.3c-5.6-0.2-11.2,1.2-16.1,4c-4.9,2.8-8.9,6.9-11.6,11.9c-4.5-10.2-13.7-15.9-26-15.9
		c-4.6-0.2-9.2,0.8-13.3,2.8c-4.1,2-7.7,5-10.3,8.8V302c0-0.3-0.1-0.6-0.4-0.9c-0.2-0.2-0.5-0.4-0.9-0.4h-14.2
		c-0.3,0-0.6,0.1-0.8,0.3c-0.1,0.1-0.2,0.2-0.3,0.4c-0.1,0.1-0.1,0.3-0.1,0.5v84.5c0,0.3,0.1,0.6,0.4,0.8c0.2,0.2,0.5,0.3,0.9,0.3
		h14.5c0.3,0,0.6-0.1,0.8-0.3c0.2-0.2,0.3-0.5,0.3-0.8v-48.6c0-13.6,8.1-22.7,20.2-22.7c11.1,0,16.8,7.2,16.8,21.2v50.1
		c0,0.3,0.1,0.6,0.4,0.8c0.2,0.2,0.5,0.3,0.9,0.3h14.4c0.2,0,0.3,0,0.5-0.1c0.1-0.1,0.3-0.1,0.4-0.3c0.1-0.1,0.2-0.2,0.3-0.4
		c0.1-0.1,0.1-0.3,0.1-0.5v-48.6c0-13.6,8.1-22.7,20.1-22.7c11.5,0,16.9,7.5,16.9,23.5v47.7c0,0.3,0.1,0.6,0.4,0.8
		c0.2,0.2,0.5,0.3,0.9,0.3h14.5c0.2,0,0.3,0,0.5-0.1c0.1-0.1,0.3-0.1,0.4-0.3c0.1-0.1,0.2-0.2,0.3-0.4c0.1-0.1,0.1-0.3,0.1-0.5V337
		C786.8,313,775.5,299.3,755.9,299.3z"/>
	<path class="st0" d="M900.8,302h-21.5v-28.6c0-0.3-0.1-0.6-0.4-0.8c-0.2-0.2-0.5-0.4-0.8-0.4h-14c-0.3,0-0.6,0.1-0.8,0.4
		c-0.2,0.2-0.4,0.5-0.4,0.8V302h-12.8c-0.3,0-0.6,0.1-0.8,0.4c-0.2,0.2-0.4,0.5-0.4,0.8v12c0,0.3,0.1,0.6,0.4,0.8
		c0.2,0.2,0.5,0.3,0.8,0.3h12.6v47.2c0,16.5,9.1,26,25.1,26c4.5,0,9-0.7,13.3-2.1c0.2-0.1,0.4-0.2,0.5-0.4c0.1-0.2,0.2-0.4,0.2-0.7
		v-12.9c0-0.2,0-0.4-0.1-0.6c-0.1-0.2-0.2-0.3-0.4-0.4c-0.2-0.1-0.4-0.1-0.6-0.1c-0.2,0-0.4,0-0.6,0.1c-3.1,1.4-6.5,2.2-9.9,2.3
		c-7.5,0-11-4.3-11-13.4v-44.9h21.5c0.3,0,0.6-0.1,0.8-0.3c0.2-0.2,0.4-0.5,0.4-0.8v-12c0-0.3-0.1-0.6-0.3-0.8S901.2,302,900.8,302
		L900.8,302z"/>
	<path class="st0" d="M827.4,272.3h-14.8c-0.7,0-1.2,0.5-1.2,1.2V288c0,0.7,0.5,1.2,1.2,1.2h14.8c0.7,0,1.2-0.5,1.2-1.2v-14.6
		C828.6,272.8,828.1,272.3,827.4,272.3z"/>
	<path class="st0" d="M827.1,301.8h-14.2c-0.7,0-1.2,0.5-1.2,1.2v83.7c0,0.7,0.5,1.2,1.2,1.2h14.2c0.7,0,1.2-0.5,1.2-1.2V303
		C828.3,302.3,827.8,301.8,827.1,301.8z"/>
</g>
<path class="st0" d="M460.4,1.9c-5.5,1.5-10.6,4-15.1,7.5c-4.5,3.5-8.2,7.8-11,12.7l-64.4,112.8c-4.3,5.3-7.2,11.6-8.5,18.3
	c-1.3,6.7-1.1,13.6,0.8,20.2c1.9,6.6,5.3,12.6,9.9,17.6c4.7,5,10.4,8.8,16.9,11.1c5.9,2.3,12.3,3.2,18.7,2.7h132.3
	c1.3,0,2.6,0,3.9-0.2h0.2c6-0.6,11.9-2.5,17.2-5.5c0.6-0.4,1.1-0.8,1.7-1.2l1.4-1c3-2.1,5.7-4.5,8-7.3l0.7-0.8
	c0.7-0.9,1.4-1.7,2-2.6l0.9-1.4c0.5-0.8,1.1-1.6,1.5-2.5c0.5-0.9,1.3-2.6,1.9-3.9l0.7-1.8c0.3-1,0.7-2,1-3.1l0.5-1.9
	c0.3-1,0.5-2.1,0.6-3.2c0-0.7,0.2-1.3,0.3-1.9c0-1.2,0.1-2.5,0.2-3.9c0-0.4,0-0.8,0-1.2c0-0.4,0-1.1,0-1.6c0-1.1,0-2.1-0.2-3.2
	c-0.2-1-0.2-1.5-0.3-2.2c-0.1-0.7-0.3-1.9-0.5-2.8c-0.2-0.9-0.4-1.4-0.5-2.1c-0.2-0.7-0.7-2.1-1-3.1c-0.4-1-0.4-1.1-0.6-1.7
	c-0.6-1.5-1.3-2.9-2.1-4.3l-0.3-0.6L509.2,22.1c0-0.2-0.3-0.4-0.4-0.6c-0.5-0.9-1.1-1.8-1.7-2.6l-0.4-0.6
	c-5.1-7.1-12.3-12.5-20.6-15.4S468.9-0.4,460.4,1.9L460.4,1.9z M501.7,22.6c0.5,0.7,1,1.4,1.4,2.2c1.7,2.8,3,5.9,3.9,9.1
	c1.3,4.6,1.7,9.4,1.1,14.2c-0.6,4.8-2.1,9.3-4.5,13.5l-31.6,55.3l-31.7-54.9c-4.9-8.1-6.5-17.8-4.3-27.1c2.1-9.2,7.7-17.3,15.7-22.5
	c7.9-5.2,17.6-7.1,26.9-5.2c9.3,1.8,17.5,7.2,23,14.9L501.7,22.6z M572.2,144.7c0.4,0.7,0.8,1.5,1.1,2.3l0.3,0.7
	c0.4,0.9,0.7,1.8,1,2.7c0,0.2,0,0.3,0,0.5c0.3,1,0.5,2,0.8,3c0,0.1,0,0.2,0,0.3c0.2,1.1,0.4,2.2,0.5,3.3c0,0.1,0,0.2,0,0.3
	c0.1,1.1,0.1,2.3,0,3.4v0.5c0,1.1,0,2.1,0,3.2c0,0.3,0,0.5,0,0.8c0,0.9-0.3,1.9-0.4,2.8c-0.1,0.3-0.1,0.6-0.2,0.9
	c-0.2,0.9-0.4,1.8-0.7,2.6l-0.2,0.8c-0.3,0.9-0.6,1.8-1,2.7c-0.1,0.1-0.1,0.3-0.2,0.5c-0.5,1-0.9,2-1.4,3
	c-2.5,4.7-6.1,8.7-10.4,11.9c-4.3,3.2-9.2,5.4-14.4,6.5l0,0c-1.1,0.2-2.2,0.4-3.4,0.5H543c-0.9,0.1-1.9,0.1-2.8,0
	c-3.3,0.1-6.6-0.4-9.8-1.2c-4.6-1.2-9-3.3-12.8-6.3c-3.8-2.9-7-6.5-9.4-10.7l-31.6-54.8h63.2c6.5,0,13,1.8,18.6,5.1
	c5.6,3.3,10.3,8.1,13.4,13.8C571.9,143.9,572.1,144.3,572.2,144.7L572.2,144.7z M403.8,197.9c-4.3,0-8.5-0.8-12.5-2.3
	c-1.8-0.7-3.5-1.5-5.1-2.4c-4.2-2.4-7.8-5.6-10.8-9.3c-2.9-3.8-5.1-8.1-6.4-12.8c-1.3-4.6-1.6-9.5-1-14.2c0.6-4.8,2.1-9.4,4.5-13.5
	l2.9-5.1c3.4-4.2,7.7-7.6,12.6-10c4.9-2.3,10.3-3.5,15.7-3.6h63.5l-31.1,54.8c-2.4,4.2-5.6,7.8-9.4,10.8c-3.8,2.9-8.1,5.1-12.8,6.3
	c-2.2,0.6-4.4,1-6.6,1.2H403.8z M384.3,123l44.5-77.8c0.2,7.1,2.2,14,5.7,20.1l30.6,53h-61.2c-6.8-0.1-13.5,1.5-19.6,4.6L384.3,123z
	 M540,118.2h-61l30.5-53.3c3.5-6.1,5.4-12.9,5.6-19.9l45.2,78.3c-6.3-3.4-13.3-5.1-20.5-5.1H540z M427.5,197.9
	c5.9-3.7,10.8-8.9,14.2-14.9l30.2-52.8l30.5,52.8c3.5,6.1,8.5,11.2,14.4,14.9H427.5z"/>
</svg>
