<svg width="356" height="199" viewBox="0 0 356 199" fill="none" xmlns="http://www.w3.org/2000/svg">
<path d="M207.19 182.341C210.18 182.341 212.417 184.656 212.417 187.744C212.417 190.832 210.175 193.149 207.19 193.149C204.205 193.149 201.963 190.834 201.963 187.744C201.963 184.654 204.194 182.341 207.19 182.341ZM207.19 191.163C209.062 191.163 210.374 189.642 210.374 187.744C210.374 185.846 209.057 184.316 207.19 184.316C205.323 184.316 204.007 185.839 204.007 187.734C204.007 189.63 205.314 191.163 207.19 191.163Z" fill="white"/>
<path d="M228.717 188.186C228.702 188.186 228.688 188.189 228.674 188.196C228.661 188.202 228.649 188.211 228.64 188.222C228.63 188.233 228.622 188.246 228.618 188.26C228.613 188.274 228.611 188.289 228.613 188.304C228.693 189.132 229.071 189.899 229.674 190.456C230.277 191.013 231.061 191.318 231.873 191.313C232.412 191.322 232.947 191.207 233.437 190.976C233.928 190.745 234.361 190.405 234.707 189.98C234.716 189.97 234.727 189.962 234.74 189.956C234.753 189.95 234.766 189.948 234.78 189.948C234.794 189.948 234.807 189.95 234.82 189.956C234.832 189.962 234.844 189.97 234.853 189.98L236.041 191.137C236.06 191.155 236.073 191.18 236.075 191.207C236.077 191.233 236.069 191.26 236.052 191.281C235.285 192.246 233.864 193.146 231.85 193.146C228.904 193.146 226.624 190.852 226.624 187.741C226.624 184.63 228.689 182.339 231.55 182.339C234.368 182.339 236.411 184.677 236.411 187.741C236.412 187.889 236.406 188.037 236.391 188.184L228.717 188.186ZM228.775 186.422H234.284C234.145 185.797 233.808 185.238 233.326 184.831C232.843 184.424 232.242 184.192 231.618 184.172C230.968 184.172 230.336 184.392 229.822 184.799C229.307 185.207 228.939 185.777 228.775 186.422V186.422Z" fill="white"/>
<path d="M219.516 182.341H219.29C218.743 182.337 218.2 182.441 217.692 182.649C217.238 182.81 216.809 183.037 216.418 183.323C216.403 183.334 216.385 183.341 216.366 183.343C216.348 183.345 216.329 183.341 216.312 183.332C216.295 183.324 216.281 183.31 216.271 183.294C216.261 183.278 216.256 183.259 216.256 183.239V182.668C216.256 182.64 216.245 182.613 216.226 182.593C216.207 182.573 216.181 182.562 216.154 182.561H214.379C214.352 182.562 214.326 182.573 214.307 182.593C214.288 182.613 214.278 182.64 214.278 182.668V198.049C214.278 198.063 214.28 198.076 214.285 198.089C214.29 198.102 214.297 198.114 214.307 198.124C214.316 198.134 214.328 198.142 214.34 198.147C214.353 198.152 214.366 198.155 214.379 198.155H216.222C216.236 198.155 216.249 198.153 216.262 198.148C216.275 198.142 216.286 198.135 216.296 198.125C216.306 198.115 216.313 198.103 216.318 198.09C216.324 198.077 216.326 198.063 216.326 198.049V192.299C216.326 192.28 216.331 192.261 216.34 192.245C216.35 192.228 216.364 192.215 216.38 192.206C216.397 192.197 216.416 192.193 216.434 192.194C216.453 192.196 216.471 192.202 216.486 192.213C217.378 192.831 218.433 193.154 219.509 193.139C222.499 193.139 224.736 190.825 224.736 187.734C224.736 184.644 222.505 182.341 219.516 182.341ZM219.516 191.162C217.644 191.162 216.332 189.642 216.332 187.746C216.332 185.848 217.644 184.327 219.516 184.327C221.388 184.327 222.7 185.85 222.7 187.746C222.7 189.642 221.388 191.162 219.516 191.162Z" fill="white"/>
<path d="M265.354 189.047L262.654 192.88C262.644 192.893 262.631 192.903 262.617 192.91C262.602 192.917 262.586 192.921 262.57 192.922H260.391C260.372 192.922 260.354 192.917 260.337 192.907C260.321 192.897 260.308 192.883 260.299 192.865C260.29 192.848 260.286 192.828 260.288 192.809C260.29 192.789 260.296 192.771 260.308 192.755L263.952 187.577C263.972 187.549 263.983 187.515 263.983 187.48C263.983 187.445 263.972 187.411 263.952 187.383L260.674 182.728C260.663 182.712 260.657 182.693 260.656 182.674C260.655 182.655 260.658 182.636 260.667 182.619C260.676 182.602 260.688 182.587 260.704 182.577C260.72 182.567 260.739 182.561 260.757 182.561H262.913C262.93 182.561 262.946 182.565 262.96 182.573C262.975 182.58 262.988 182.591 262.997 182.605L265.354 185.915L267.711 182.605C267.721 182.591 267.733 182.58 267.748 182.573C267.762 182.565 267.779 182.561 267.795 182.561H269.958C269.977 182.561 269.995 182.567 270.011 182.577C270.027 182.587 270.04 182.602 270.048 182.619C270.057 182.636 270.061 182.655 270.059 182.674C270.058 182.693 270.052 182.712 270.041 182.728L266.756 187.383C266.736 187.411 266.726 187.445 266.726 187.48C266.726 187.515 266.736 187.549 266.756 187.577L270.409 192.76C270.42 192.775 270.426 192.794 270.427 192.813C270.429 192.832 270.425 192.851 270.416 192.869C270.408 192.886 270.395 192.9 270.379 192.91C270.363 192.92 270.345 192.926 270.326 192.926H268.147C268.131 192.926 268.115 192.922 268.101 192.915C268.086 192.908 268.074 192.897 268.064 192.885L265.354 189.047Z" fill="white"/>
<path d="M276.478 182.341C279.47 182.341 281.707 184.656 281.707 187.744C281.707 190.832 279.47 193.149 276.478 193.149C273.487 193.149 271.251 190.834 271.251 187.744C271.251 184.654 273.489 182.341 276.478 182.341ZM276.478 191.163C278.35 191.163 279.666 189.639 279.666 187.744C279.666 185.848 278.35 184.316 276.478 184.316C274.607 184.316 273.295 185.839 273.295 187.734C273.295 189.63 274.607 191.163 276.478 191.163Z" fill="white"/>
<path d="M251.593 188.186C251.578 188.186 251.564 188.189 251.55 188.196C251.537 188.202 251.525 188.211 251.516 188.222C251.506 188.233 251.498 188.246 251.494 188.26C251.489 188.274 251.487 188.289 251.489 188.304C251.569 189.132 251.947 189.899 252.55 190.456C253.153 191.013 253.938 191.318 254.749 191.313C255.289 191.322 255.824 191.207 256.315 190.976C256.805 190.746 257.239 190.405 257.585 189.98C257.594 189.97 257.605 189.962 257.618 189.956C257.63 189.951 257.644 189.948 257.657 189.948C257.671 189.948 257.684 189.951 257.696 189.956C257.709 189.962 257.72 189.97 257.729 189.98L258.917 191.137C258.935 191.156 258.945 191.182 258.945 191.209C258.945 191.236 258.935 191.261 258.917 191.281C258.149 192.246 256.729 193.146 254.715 193.146C251.769 193.146 249.488 190.852 249.488 187.741C249.488 184.63 251.554 182.339 254.415 182.339C257.233 182.339 259.276 184.677 259.276 187.741C259.277 187.889 259.27 188.037 259.256 188.184L251.593 188.186ZM251.651 186.422H257.158C257.019 185.797 256.682 185.238 256.199 184.831C255.717 184.424 255.116 184.192 254.492 184.172C253.842 184.172 253.211 184.393 252.697 184.8C252.183 185.207 251.815 185.778 251.651 186.422V186.422Z" fill="white"/>
<path d="M239.025 182.561H240.906C240.933 182.561 240.959 182.572 240.978 182.592C240.997 182.611 241.008 182.638 241.008 182.665V183.642C241.007 183.664 241.014 183.685 241.026 183.703C241.038 183.721 241.055 183.734 241.075 183.742C241.095 183.749 241.116 183.75 241.137 183.744C241.157 183.738 241.175 183.726 241.188 183.709C241.538 183.282 241.975 182.94 242.469 182.707C242.963 182.474 243.501 182.356 244.045 182.362C246.596 182.362 247.657 184.397 247.657 186.586V192.822C247.657 192.85 247.646 192.876 247.627 192.896C247.608 192.915 247.582 192.926 247.555 192.926H245.686C245.659 192.926 245.633 192.915 245.614 192.896C245.595 192.876 245.584 192.85 245.584 192.822V186.908C245.584 185.374 244.846 184.346 243.458 184.346C241.961 184.346 241.008 185.228 241.008 187.105V192.822C241.008 192.85 240.997 192.876 240.978 192.896C240.959 192.915 240.933 192.926 240.906 192.926H239.025C238.998 192.926 238.973 192.915 238.954 192.896C238.935 192.876 238.924 192.85 238.924 192.822V182.665C238.924 182.638 238.935 182.611 238.954 182.592C238.973 182.572 238.998 182.561 239.025 182.561V182.561Z" fill="white"/>
<path d="M190.919 189.005C191.364 188.195 191.587 187.345 191.587 186.474C191.587 184.916 191.02 183.499 189.977 182.477C188.773 181.292 187.022 180.695 184.937 180.726C181.172 180.796 177.012 183.651 176.709 188.772C176.698 188.944 176.759 189.116 176.881 189.248C176.992 189.369 177.144 189.44 177.316 189.44H178.925C178.945 188.762 179.026 188.286 179.047 188.195C179.593 184.936 181.972 182.831 185.109 182.831C186.061 182.831 186.992 183.074 187.862 183.56C189.39 184.4 190.413 186.201 190.342 187.932V188.084C190.301 189.106 189.937 189.976 189.279 190.634C189.977 190.24 190.554 189.663 190.919 189.005Z" fill="white"/>
<path d="M189.289 185.574C188.884 184.885 188.317 184.309 187.649 183.944C186.839 183.499 185.989 183.276 185.119 183.276C183.56 183.276 182.143 183.843 181.121 184.885C179.937 186.09 179.33 187.841 179.37 189.926C179.441 193.691 182.295 197.851 187.416 198.154C187.588 198.164 187.76 198.104 187.892 197.982C188.013 197.871 188.084 197.719 188.084 197.547V195.938C187.406 195.917 186.931 195.836 186.839 195.816C183.58 195.27 181.475 192.891 181.475 189.744C181.475 188.792 181.718 187.871 182.204 186.991C183.044 185.462 184.846 184.44 186.576 184.511H186.728C187.75 184.551 188.631 184.916 189.289 185.574Z" fill="white"/>
<path d="M182.589 187.213C182.144 188.023 181.921 188.873 181.921 189.744C181.921 191.302 182.488 192.719 183.53 193.741C184.735 194.926 186.475 195.523 188.57 195.492C192.336 195.422 196.495 192.567 196.799 187.446C196.809 187.274 196.748 187.102 196.627 186.97C196.516 186.849 196.364 186.778 196.192 186.778H194.582C194.562 187.456 194.481 187.932 194.461 188.023C193.914 191.282 191.536 193.387 188.398 193.387C187.447 193.387 186.516 193.144 185.645 192.658C184.117 191.818 183.095 190.017 183.166 188.276C183.166 187.193 183.54 186.262 184.229 185.574C183.52 185.978 182.953 186.545 182.589 187.213Z" fill="white"/>
<path d="M194.127 186.292C194.056 182.527 191.202 178.367 186.081 178.064C185.909 178.054 185.737 178.114 185.605 178.236C185.484 178.347 185.413 178.499 185.413 178.671V180.28C186.091 180.301 186.567 180.382 186.658 180.402C189.917 180.948 192.022 183.327 192.022 186.474C192.022 187.426 191.779 188.347 191.293 189.227C190.443 190.766 188.672 191.778 186.921 191.707H186.769C185.747 191.667 184.877 191.302 184.219 190.644C184.624 191.333 185.19 191.909 185.858 192.274C186.668 192.719 187.518 192.942 188.389 192.942C189.947 192.942 191.364 192.375 192.386 191.333C193.571 190.118 194.168 188.377 194.127 186.292Z" fill="white"/>
<path d="M76.3765 179.889H79.8564C82.4164 179.889 84.1165 181.209 84.1165 183.469C84.1165 185.729 82.4364 187.019 79.8564 187.019H77.6365V192.559H76.4165L76.3765 179.889ZM79.8564 185.889C81.8564 185.889 82.8564 185.049 82.8564 183.509C82.8564 181.969 81.8064 181.089 79.8564 181.089H77.6365V185.889H79.8564Z" fill="white"/>
<path d="M85.1163 188.059C85.171 187.211 85.4727 186.398 85.984 185.72C86.4953 185.042 87.1937 184.528 87.9935 184.243C88.7933 183.957 89.6594 183.912 90.4847 184.112C91.31 184.313 92.0584 184.75 92.6378 185.371C93.2172 185.992 93.6022 186.769 93.7452 187.607C93.8882 188.444 93.7829 189.305 93.4425 190.083C93.102 190.861 92.5413 191.522 91.8294 191.985C91.1175 192.448 90.2857 192.693 89.4364 192.689C88.8437 192.685 88.2581 192.56 87.7154 192.321C87.1727 192.083 86.6844 191.737 86.2801 191.304C85.8758 190.87 85.5639 190.359 85.3638 189.801C85.1638 189.243 85.0796 188.651 85.1163 188.059V188.059ZM92.5662 188.059C92.5662 186.059 91.3964 184.499 89.4364 184.499C87.4764 184.499 86.3463 186.079 86.3463 188.059C86.3463 190.039 87.5064 191.659 89.4364 191.659C91.3664 191.659 92.5662 190.039 92.5662 188.059Z" fill="white"/>
<path d="M94.8765 183.599H96.1565L98.1565 190.779L100.556 183.599H101.636L104.026 190.769L106.026 183.599H107.296L104.677 192.599H103.556L101.106 185.269L98.6565 192.619H97.5364L94.8765 183.599Z" fill="white"/>
<path d="M108.367 188.119C108.367 185.589 109.797 183.459 112.367 183.459C115.287 183.459 116.247 185.819 116.247 187.599C116.254 187.867 116.234 188.135 116.187 188.399H109.637C109.727 190.399 110.767 191.619 112.567 191.619C113.063 191.64 113.557 191.549 114.013 191.351C114.469 191.154 114.873 190.856 115.197 190.479L116.017 191.209C115.587 191.699 115.054 192.086 114.455 192.342C113.856 192.599 113.207 192.717 112.557 192.689C109.847 192.689 108.367 190.699 108.367 188.119ZM115.107 187.519C115.127 187.329 115.127 187.138 115.107 186.949C115.094 186.609 115.014 186.275 114.872 185.967C114.729 185.658 114.527 185.38 114.277 185.15C114.027 184.919 113.734 184.74 113.415 184.624C113.096 184.507 112.756 184.454 112.417 184.469C110.787 184.469 109.797 185.729 109.647 187.519H115.107Z" fill="white"/>
<path d="M118.726 183.599H119.876V185.459C120.067 184.875 120.438 184.367 120.935 184.008C121.433 183.648 122.032 183.456 122.646 183.459C123.146 183.451 123.636 183.601 124.046 183.889L123.506 184.889C123.198 184.723 122.855 184.634 122.506 184.629C121.306 184.629 119.896 185.569 119.896 188.009V192.579H118.746L118.726 183.599Z" fill="white"/>
<path d="M124.476 188.119C124.476 185.589 125.906 183.459 128.476 183.459C131.396 183.459 132.356 185.819 132.356 187.599C132.358 187.867 132.338 188.134 132.296 188.399H125.696C125.786 190.399 126.826 191.619 128.626 191.619C129.122 191.64 129.616 191.549 130.072 191.351C130.528 191.154 130.933 190.856 131.256 190.479L132.076 191.209C131.647 191.699 131.113 192.086 130.514 192.342C129.916 192.599 129.267 192.717 128.616 192.689C125.956 192.689 124.476 190.699 124.476 188.119ZM131.216 187.519C131.236 187.329 131.236 187.138 131.216 186.949C131.203 186.609 131.123 186.275 130.981 185.967C130.839 185.658 130.637 185.38 130.387 185.15C130.137 184.919 129.843 184.74 129.524 184.624C129.205 184.507 128.866 184.454 128.526 184.469C126.896 184.469 125.906 185.729 125.756 187.519H131.216Z" fill="white"/>
<path d="M134.096 188.069C134.096 185.539 135.666 183.459 138.096 183.459C138.781 183.45 139.452 183.646 140.024 184.022C140.596 184.399 141.043 184.937 141.306 185.569V179.889H142.516V192.559H141.396V190.559C141.14 191.207 140.693 191.762 140.115 192.149C139.536 192.537 138.853 192.739 138.156 192.729C135.636 192.689 134.096 190.619 134.096 188.069ZM141.376 188.069C141.376 186.069 140.226 184.539 138.376 184.539C136.526 184.539 135.316 186.089 135.316 188.069C135.316 190.049 136.516 191.619 138.376 191.619C140.236 191.619 141.376 190.089 141.376 188.069V188.069Z" fill="white"/>
<path d="M151.636 190.579V192.579H150.417V179.889H151.636V185.569C151.897 184.937 152.341 184.398 152.912 184.022C153.482 183.646 154.153 183.45 154.836 183.459C157.256 183.459 158.646 185.529 158.646 188.069C158.646 190.609 157.256 192.689 154.856 192.689C154.17 192.7 153.497 192.505 152.923 192.128C152.349 191.752 151.901 191.212 151.636 190.579V190.579ZM157.457 188.069C157.457 186.069 156.456 184.539 154.576 184.539C152.696 184.539 151.576 186.069 151.576 188.069C151.576 190.069 152.746 191.589 154.576 191.589C156.406 191.589 157.467 190.059 157.467 188.069H157.457Z" fill="white"/>
<path d="M163.266 192.459L159.457 183.609H160.757L163.896 191.069L166.656 183.609H167.947L163.036 196.409H161.747L163.266 192.459Z" fill="white"/>
<path d="M50.8164 132.929L42.1765 144.929C42.146 144.969 42.1066 145.002 42.0615 145.024C42.0165 145.047 41.9669 145.059 41.9165 145.059H34.9165C34.8561 145.059 34.7968 145.042 34.7451 145.011C34.6935 144.98 34.6514 144.935 34.6236 144.881C34.5957 144.827 34.5831 144.767 34.5872 144.707C34.5912 144.646 34.6117 144.588 34.6465 144.539L46.2964 128.379C46.3598 128.292 46.3941 128.187 46.3941 128.079C46.3941 127.971 46.3598 127.866 46.2964 127.779L35.8164 113.259C35.7816 113.21 35.7612 113.152 35.7571 113.091C35.753 113.031 35.7656 112.971 35.7935 112.917C35.8213 112.863 35.8634 112.818 35.9151 112.787C35.9667 112.756 36.026 112.739 36.0864 112.739H42.9766C43.0281 112.739 43.0789 112.752 43.1243 112.776C43.1697 112.801 43.2083 112.836 43.2366 112.879L50.7764 123.189L58.3064 112.879C58.338 112.837 58.3788 112.802 58.4256 112.778C58.4723 112.754 58.5238 112.741 58.5764 112.739H65.4666C65.527 112.739 65.5863 112.756 65.638 112.787C65.6896 112.818 65.7317 112.863 65.7595 112.917C65.7874 112.971 65.8 113.031 65.7959 113.091C65.7918 113.152 65.7714 113.21 65.7366 113.259L55.2566 127.779C55.1932 127.866 55.159 127.971 55.159 128.079C55.159 128.187 55.1932 128.292 55.2566 128.379L66.9065 144.539C66.9413 144.588 66.9618 144.646 66.9658 144.707C66.9699 144.767 66.9573 144.827 66.9295 144.881C66.9016 144.935 66.8596 144.98 66.8079 145.011C66.7562 145.042 66.697 145.059 66.6365 145.059H59.6365C59.5861 145.059 59.5365 145.047 59.4915 145.024C59.4464 145.002 59.407 144.969 59.3765 144.929L50.8164 132.929Z" fill="white"/>
<path d="M86.436 112.019C95.996 112.019 103.146 119.239 103.146 128.869C103.146 138.499 95.996 145.719 86.436 145.719C76.876 145.719 69.7261 138.499 69.7261 128.869C69.7261 119.239 76.876 112.019 86.436 112.019ZM86.436 139.529C92.436 139.529 96.616 134.789 96.616 128.869C96.616 122.949 92.426 118.209 86.436 118.209C80.446 118.209 76.2561 122.959 76.2561 128.869C76.2561 134.779 80.456 139.529 86.436 139.529Z" fill="white"/>
<path d="M6.82601 130.249C6.77963 130.249 6.73386 130.258 6.69125 130.277C6.64864 130.295 6.61006 130.322 6.57821 130.356C6.54636 130.389 6.52181 130.429 6.50594 130.473C6.49008 130.516 6.48344 130.563 6.48617 130.609C6.74038 133.194 7.95081 135.591 9.88021 137.33C11.8096 139.068 14.3188 140.024 16.9161 140.009C18.6403 140.037 20.3488 139.68 21.9166 138.961C23.4843 138.243 24.8716 137.183 25.9762 135.859C26.006 135.828 26.0416 135.804 26.0811 135.787C26.1207 135.77 26.1632 135.762 26.2061 135.762C26.2491 135.762 26.2914 135.77 26.3309 135.787C26.3704 135.804 26.4063 135.828 26.4361 135.859L30.2362 139.479C30.2931 139.54 30.3245 139.621 30.3245 139.704C30.3245 139.788 30.2931 139.868 30.2362 139.929C27.7762 142.929 23.236 145.739 16.806 145.739C14.5887 145.779 12.3865 145.369 10.3319 144.535C8.27724 143.7 6.41294 142.458 4.8514 140.884C3.28987 139.309 2.06346 137.435 1.24618 135.373C0.428902 133.312 0.0375992 131.106 0.0960327 128.889C0.0960327 119.199 6.69603 112.039 15.846 112.039C24.846 112.039 31.3861 119.329 31.3861 128.889C31.39 129.35 31.3666 129.811 31.316 130.269L6.82601 130.249ZM7.00619 124.749H24.6361C24.1929 122.801 23.114 121.056 21.5697 119.788C20.0253 118.521 18.1031 117.804 16.106 117.749C14.029 117.746 12.0097 118.432 10.3634 119.698C8.71703 120.965 7.5365 122.741 7.00619 124.749V124.749Z" fill="white"/>
<path d="M122.786 125.099H122.636C119.046 124.099 115.976 123.289 115.976 120.679C115.976 118.469 118.176 116.979 121.446 116.979C122.944 116.978 124.412 117.397 125.683 118.189C126.954 118.981 127.977 120.114 128.636 121.459C128.695 121.564 128.793 121.642 128.909 121.676C129.025 121.71 129.15 121.696 129.256 121.639L133.466 119.359C133.52 119.33 133.568 119.291 133.606 119.242C133.644 119.194 133.671 119.138 133.686 119.079C133.711 119.026 133.723 118.968 133.723 118.909C133.723 118.85 133.711 118.792 133.686 118.739C132.545 116.563 130.815 114.752 128.692 113.514C126.57 112.276 124.142 111.661 121.686 111.739C115.816 111.739 109.896 114.739 109.896 121.409C109.896 128.079 115.556 129.559 120.546 130.809C124.406 131.809 127.736 132.609 127.736 135.669C127.736 137.869 126.106 140.429 121.496 140.429C119.709 140.479 117.954 139.949 116.494 138.918C115.034 137.886 113.947 136.41 113.396 134.709C113.376 134.65 113.343 134.596 113.3 134.552C113.257 134.507 113.204 134.472 113.146 134.449C113.089 134.424 113.028 134.411 112.966 134.411C112.904 134.411 112.843 134.424 112.786 134.449L108.366 136.379C108.263 136.425 108.18 136.508 108.134 136.611C108.088 136.715 108.082 136.831 108.116 136.939C109.886 142.309 115.366 145.939 121.756 145.939C127.866 145.939 134.026 142.689 134.026 135.429C134.026 128.169 128.036 126.509 122.786 125.099Z" fill="white"/>
<path d="M167.967 112.739H162.556C162.436 112.739 162.321 112.786 162.235 112.87C162.149 112.954 162.099 113.069 162.096 113.189V131.189C162.096 136.689 159.196 139.849 154.146 139.849C149.736 139.849 147.207 136.849 147.207 131.679V113.189C147.204 113.069 147.154 112.954 147.068 112.87C146.982 112.786 146.867 112.739 146.747 112.739H141.336C141.216 112.739 141.101 112.786 141.015 112.87C140.929 112.954 140.879 113.069 140.876 113.189V132.689C140.996 140.939 145.407 145.859 152.667 145.859C154.473 145.892 156.262 145.509 157.897 144.741C159.532 143.973 160.969 142.84 162.096 141.429V144.559C162.099 144.679 162.149 144.794 162.235 144.878C162.321 144.962 162.436 145.009 162.556 145.009H167.967C168.087 145.009 168.202 144.962 168.288 144.878C168.374 144.794 168.424 144.679 168.427 144.559V113.189C168.424 113.069 168.374 112.954 168.288 112.87C168.202 112.786 168.087 112.739 167.967 112.739V112.739Z" fill="white"/>
<path d="M213.166 111.679C211.037 111.611 208.93 112.136 207.081 113.195C205.232 114.255 203.714 115.807 202.696 117.679C201.026 113.829 197.546 111.679 192.876 111.679C191.146 111.605 189.425 111.964 187.869 112.724C186.313 113.483 184.972 114.62 183.966 116.029V112.689C183.968 112.628 183.957 112.568 183.934 112.511C183.911 112.455 183.877 112.404 183.834 112.361C183.791 112.318 183.74 112.284 183.684 112.261C183.627 112.239 183.567 112.228 183.506 112.229H178.226C178.107 112.229 177.992 112.276 177.906 112.359C177.818 112.446 177.767 112.565 177.766 112.689V144.559C177.766 144.678 177.814 144.793 177.898 144.877C177.982 144.962 178.097 145.009 178.216 145.009H183.696C183.817 145.009 183.932 144.962 184.018 144.878C184.104 144.794 184.154 144.679 184.156 144.559V126.239C184.156 121.119 187.216 117.679 191.776 117.679C195.976 117.679 198.116 120.389 198.116 125.679V144.559C198.116 144.678 198.164 144.793 198.248 144.877C198.332 144.962 198.447 145.009 198.566 145.009H204.016C204.135 145.009 204.25 144.962 204.334 144.877C204.419 144.793 204.466 144.678 204.466 144.559V126.239C204.466 121.119 207.516 117.679 212.066 117.679C216.406 117.679 218.426 120.499 218.426 126.529V144.529C218.429 144.649 218.478 144.764 218.564 144.848C218.65 144.932 218.766 144.979 218.886 144.979H224.366C224.486 144.979 224.6 144.932 224.684 144.847C224.769 144.763 224.816 144.648 224.816 144.529V125.889C224.856 116.859 220.636 111.679 213.166 111.679Z" fill="white"/>
<path d="M269.636 111.679C267.507 111.611 265.4 112.136 263.551 113.195C261.702 114.255 260.184 115.807 259.166 117.679C257.486 113.829 254.016 111.679 249.346 111.679C247.616 111.604 245.895 111.963 244.339 112.723C242.783 113.482 241.441 114.619 240.436 116.029V112.689C240.436 112.567 240.388 112.45 240.302 112.364C240.215 112.277 240.098 112.229 239.976 112.229H234.636C234.517 112.229 234.402 112.276 234.316 112.359C234.271 112.401 234.236 112.453 234.212 112.509C234.188 112.566 234.176 112.627 234.176 112.689V144.559C234.179 144.679 234.228 144.794 234.314 144.878C234.4 144.962 234.516 145.009 234.636 145.009H240.116C240.236 145.009 240.35 144.962 240.434 144.877C240.519 144.793 240.566 144.678 240.566 144.559V126.239C240.566 121.119 243.636 117.679 248.196 117.679C252.396 117.679 254.526 120.389 254.526 125.679V144.559C254.529 144.679 254.579 144.794 254.665 144.878C254.751 144.962 254.866 145.009 254.986 145.009H260.426C260.486 145.01 260.546 145 260.602 144.978C260.657 144.956 260.708 144.923 260.751 144.881C260.794 144.839 260.828 144.789 260.851 144.734C260.874 144.678 260.886 144.619 260.886 144.559V126.239C260.886 121.119 263.936 117.679 268.476 117.679C272.826 117.679 274.846 120.499 274.846 126.529V144.529C274.849 144.649 274.898 144.764 274.984 144.848C275.07 144.932 275.186 144.979 275.306 144.979H280.776C280.836 144.98 280.896 144.97 280.951 144.948C281.007 144.926 281.058 144.893 281.101 144.851C281.144 144.809 281.178 144.759 281.201 144.704C281.224 144.648 281.236 144.589 281.236 144.529V125.889C281.296 116.859 277.036 111.679 269.636 111.679Z" fill="white"/>
<path d="M344.486 125.099C340.836 124.099 337.676 123.279 337.676 120.639C337.676 118.429 339.876 116.939 343.146 116.939C344.642 116.944 346.107 117.368 347.375 118.163C348.642 118.958 349.661 120.093 350.316 121.439C350.343 121.493 350.381 121.54 350.427 121.578C350.474 121.616 350.528 121.643 350.586 121.659C350.698 121.703 350.823 121.703 350.936 121.659L355.146 119.379C355.2 119.35 355.247 119.311 355.285 119.262C355.323 119.214 355.35 119.158 355.366 119.099C355.39 119.046 355.402 118.988 355.402 118.929C355.402 118.87 355.39 118.812 355.366 118.759C354.225 116.583 352.494 114.772 350.372 113.534C348.249 112.296 345.821 111.681 343.366 111.759C337.496 111.759 331.576 114.759 331.576 121.429C331.576 128.099 337.236 129.579 342.226 130.829C346.086 131.829 349.416 132.629 349.416 135.689C349.416 137.889 347.786 140.449 343.176 140.449C341.389 140.498 339.635 139.967 338.175 138.936C336.715 137.905 335.628 136.429 335.076 134.729C335.055 134.67 335.022 134.616 334.979 134.572C334.936 134.527 334.884 134.492 334.826 134.469C334.77 134.442 334.708 134.427 334.646 134.427C334.583 134.427 334.522 134.442 334.466 134.469L330.056 136.399C329.95 136.444 329.866 136.525 329.818 136.629C329.77 136.732 329.762 136.85 329.796 136.959C331.566 142.329 337.046 145.959 343.436 145.959C349.546 145.959 355.706 142.709 355.706 135.449C355.706 128.189 349.736 126.459 344.486 125.099Z" fill="white"/>
<path d="M324.306 112.709H316.216V101.919C316.216 101.8 316.169 101.685 316.084 101.601C316 101.516 315.885 101.469 315.766 101.469H310.486C310.368 101.472 310.255 101.52 310.171 101.604C310.087 101.687 310.039 101.8 310.036 101.919V112.709H305.206C305.088 112.712 304.975 112.76 304.891 112.844C304.807 112.927 304.759 113.04 304.756 113.159V117.689C304.759 117.807 304.807 117.918 304.892 118.001C304.976 118.083 305.089 118.129 305.206 118.129H309.976V135.929C309.976 142.159 313.426 145.739 319.436 145.739C321.134 145.743 322.822 145.476 324.436 144.949C324.52 144.914 324.592 144.856 324.643 144.782C324.695 144.707 324.724 144.619 324.726 144.529V139.659C324.727 139.583 324.708 139.508 324.671 139.441C324.635 139.375 324.581 139.319 324.516 139.279C324.45 139.245 324.376 139.227 324.301 139.227C324.226 139.227 324.153 139.245 324.086 139.279C322.911 139.804 321.643 140.093 320.356 140.129C317.536 140.129 316.216 138.519 316.216 135.069V118.129H324.306C324.424 118.129 324.537 118.083 324.621 118.001C324.705 117.918 324.754 117.807 324.756 117.689V113.159C324.756 113.04 324.709 112.925 324.625 112.841C324.54 112.756 324.425 112.709 324.306 112.709V112.709Z" fill="white"/>
<path d="M296.606 101.479H291.016C290.767 101.479 290.566 101.68 290.566 101.929V107.429C290.566 107.678 290.767 107.879 291.016 107.879H296.606C296.854 107.879 297.056 107.678 297.056 107.429V101.929C297.056 101.68 296.854 101.479 296.606 101.479Z" fill="white"/>
<path d="M296.497 112.609H291.156C290.908 112.609 290.707 112.81 290.707 113.059V144.609C290.707 144.858 290.908 145.059 291.156 145.059H296.497C296.745 145.059 296.947 144.858 296.947 144.609V113.059C296.947 112.81 296.745 112.609 296.497 112.609Z" fill="white"/>
<path d="M190.102 69.4688L176.926 46.6094L163.686 69.4688C162.687 71.2066 161.353 72.7287 159.762 73.9467C158.17 75.1648 156.352 76.0546 154.414 76.5644C153.065 76.9197 151.675 77.0919 150.281 77.0764H150.464L203.351 77.1404H203.616C200.883 77.1903 198.186 76.5046 195.809 75.1549C193.431 73.8053 191.46 71.8414 190.102 69.4688V69.4688Z" fill="#DDF6F1"/>
<path d="M150.454 46.5362H176.88L163.703 23.6768C162.347 21.3185 161.646 18.6403 161.674 15.92C161.701 13.1996 162.455 10.5361 163.859 8.20551C163.808 8.27522 163.762 8.34857 163.722 8.42496L137.205 54.1895C137.205 54.2718 137.132 54.345 137.086 54.4273C138.405 52.0364 140.34 50.043 142.692 48.655C145.043 47.2671 147.724 46.5354 150.454 46.5362V46.5362Z" fill="#EAEAEA"/>
<path d="M163.64 69.4322L176.88 46.5728H150.454C147.733 46.5723 145.061 47.2994 142.716 48.6789C140.37 50.0583 138.436 52.0398 137.114 54.4181C137.013 54.601 136.922 54.7839 136.83 54.9667C136.739 55.1496 136.565 55.4879 136.455 55.7531C136.346 56.0183 136.291 56.1646 136.208 56.3749C136.126 56.5852 136.007 56.8869 135.925 57.1521C135.843 57.4173 135.797 57.591 135.742 57.8105C135.687 58.0299 135.596 58.3316 135.532 58.5968C135.468 58.862 135.449 59.0632 135.413 59.2918C135.376 59.5203 135.321 59.8129 135.294 60.0781C135.267 60.3433 135.294 60.581 135.239 60.8279C135.184 61.0748 135.239 61.3217 135.239 61.5777C135.239 61.8337 135.239 62.1446 135.239 62.4281C135.239 62.7115 135.239 62.8395 135.239 63.0407C135.239 63.2419 135.303 63.699 135.349 64.0282C135.349 64.1745 135.349 64.33 135.422 64.4763C135.486 64.8329 135.559 65.1803 135.651 65.5278C135.651 65.6558 135.705 65.7747 135.742 65.8936C135.843 66.241 135.952 66.5885 136.071 66.9268C136.071 67.0548 136.163 67.192 136.218 67.32C136.339 67.6248 136.468 67.9296 136.602 68.2344C136.675 68.399 136.757 68.5727 136.839 68.7373C136.922 68.9018 137.095 69.2219 137.233 69.4596L137.617 70.0905C137.735 70.2643 137.854 70.4471 137.982 70.6209C138.11 70.7946 138.33 71.1055 138.522 71.3432L138.842 71.7273C139.061 71.9833 139.281 72.2302 139.509 72.4679L139.839 72.7879C140.085 73.0257 140.323 73.2543 140.579 73.4646L141 73.8029C141.237 73.9858 141.475 74.1778 141.731 74.3516C141.987 74.5253 142.115 74.6076 142.317 74.7264C142.518 74.8453 142.755 75.0099 142.984 75.1379L143.642 75.4762C143.862 75.5859 144.081 75.7048 144.31 75.8054L144.977 76.0614C145.224 76.162 145.471 76.2626 145.727 76.3449C145.983 76.4272 146.12 76.4546 146.312 76.5095C146.504 76.5643 146.898 76.6741 147.227 76.7381L147.73 76.8295C148.068 76.8935 148.397 76.9484 148.735 76.985L149.211 77.0307C149.558 77.0307 149.906 77.049 150.253 77.0855C151.648 77.101 153.038 76.9288 154.386 76.5735C156.325 76.0561 158.142 75.1583 159.73 73.9323C161.319 72.7063 162.648 71.1766 163.64 69.4322V69.4322Z" fill="white"/>
<path d="M190.138 23.6676L176.898 46.5271H203.314C206.027 46.5329 208.689 47.2621 211.026 48.6395C213.363 50.017 215.29 51.9928 216.609 54.3633C216.583 54.2976 216.552 54.2335 216.518 54.1713L190.129 8.33352L189.955 8.06836C191.397 10.4612 192.159 13.2022 192.159 15.996C192.182 18.6877 191.484 21.3365 190.138 23.6676V23.6676Z" fill="#5CC5C9"/>
<path d="M203.342 46.6002H176.926L190.102 69.4597C191.462 71.8169 193.429 73.7671 195.797 75.1081C198.165 76.449 200.85 77.1318 203.571 77.0856H204.174C204.476 77.0856 204.769 77.0856 205.089 77.0216L205.692 76.9301C205.985 76.8844 206.277 76.8387 206.606 76.7747C206.936 76.7107 207 76.6741 207.201 76.6284C207.402 76.5827 207.768 76.4821 208.051 76.3906C208.335 76.2992 208.444 76.2443 208.646 76.1712C208.847 76.098 209.185 75.9792 209.459 75.8603L210.063 75.5677C210.31 75.4488 210.557 75.33 210.794 75.1928L211.279 74.9002C211.663 74.6625 212.029 74.4156 212.385 74.1595L212.907 73.7664C213.34 73.4225 213.755 73.0563 214.15 72.6691C214.296 72.5228 214.424 72.3582 214.562 72.2119C214.836 71.9193 215.101 71.6176 215.339 71.2976L215.75 70.7581C216.01 70.3989 216.251 70.0265 216.473 69.6425C216.546 69.5328 216.619 69.4231 216.683 69.3042C216.986 68.767 217.255 68.2112 217.488 67.6401C217.488 67.6401 217.488 67.5852 217.488 67.5577C217.705 67.0109 217.891 66.4523 218.045 65.8844C218.064 65.7886 218.089 65.694 218.119 65.601C218.249 65.0733 218.353 64.5392 218.429 64.0008C218.429 63.9094 218.429 63.8271 218.429 63.7356C218.513 63.1113 218.556 62.482 218.557 61.852C218.553 61.2622 218.516 60.6731 218.448 60.0873C218.448 59.9044 218.393 59.7307 218.365 59.5569C218.301 59.1363 218.219 58.7249 218.128 58.3134L217.972 57.7191C217.848 57.2761 217.701 56.8397 217.533 56.4115C217.533 56.2743 217.442 56.1372 217.387 56.0092C217.164 55.4722 216.908 54.95 216.619 54.4456C215.303 52.0761 213.379 50.1002 211.045 48.7212C208.712 47.3423 206.053 46.6102 203.342 46.6002Z" fill="#99E4D5"/>
<path d="M176.176 0.799072L175.581 0.84478C175.27 0.84478 174.95 0.908796 174.667 0.954515L174.219 1.03681C173.881 1.10081 173.533 1.16482 173.195 1.25626L172.802 1.36598C172.463 1.45742 172.125 1.56714 171.796 1.68601L171.366 1.8506C171.055 1.96947 170.753 2.09748 170.452 2.24378C170.15 2.39008 170.095 2.42665 169.912 2.51809C169.729 2.60953 169.4 2.78326 169.153 2.92956L168.531 3.33189C168.321 3.46904 168.111 3.60621 167.91 3.75251L167.288 4.24627L166.748 4.70345C166.547 4.88633 166.355 5.07836 166.163 5.27038L165.688 5.755C165.496 5.9653 165.331 6.18475 165.148 6.39506L164.737 6.91625C164.563 7.14484 164.408 7.39172 164.243 7.62946C164.078 7.8672 164.014 7.97693 163.905 8.1598C162.501 10.4904 161.747 13.1539 161.72 15.8743C161.692 18.5946 162.393 21.2728 163.749 23.6311L176.925 46.4905L190.166 23.6311C191.508 21.324 192.215 18.702 192.214 16.0326C192.214 13.2388 191.452 10.4978 190.01 8.10494C189.763 7.69347 189.498 7.29114 189.224 6.91625L188.977 6.60536C188.692 6.22645 188.387 5.86321 188.063 5.51725C187.944 5.38009 187.816 5.25209 187.688 5.12407C187.34 4.78575 186.965 4.45658 186.581 4.13655C186.481 4.06339 186.389 3.97196 186.298 3.89881C185.816 3.53743 185.315 3.20169 184.798 2.89299L184.085 2.4998L183.536 2.21635C183.238 2.08224 182.933 1.95423 182.622 1.83231L182.192 1.65858C181.854 1.53971 181.516 1.42999 181.177 1.33855L180.793 1.22882C180.455 1.13738 180.107 1.06423 179.769 1.00022L179.321 0.927085L178.407 0.808211H177.812H177.026L176.176 0.799072Z" fill="#00A4AB"/>
</svg>
