<svg width="944" height="681" viewBox="0 0 944 681" fill="none" xmlns="http://www.w3.org/2000/svg">
<path d="M573.329 638.3C581.255 638.3 587.187 644.437 587.187 652.624C587.187 660.811 581.243 666.955 573.329 666.955C565.414 666.955 559.47 660.818 559.47 652.624C559.47 644.431 565.384 638.3 573.329 638.3ZM573.329 661.689C578.291 661.689 581.769 657.657 581.769 652.624C581.769 647.592 578.279 643.535 573.329 643.535C568.378 643.535 564.888 647.573 564.888 652.6C564.888 657.626 568.354 661.689 573.329 661.689Z" fill="white"/>
<path d="M630.404 653.797C630.366 653.798 630.328 653.806 630.293 653.823C630.258 653.839 630.226 653.863 630.201 653.892C630.175 653.921 630.155 653.956 630.143 653.993C630.13 654.031 630.126 654.07 630.129 654.11C630.341 656.305 631.345 658.34 632.944 659.816C634.543 661.292 636.622 662.102 638.774 662.088C640.204 662.112 641.621 661.806 642.921 661.194C644.221 660.583 645.371 659.68 646.287 658.553C646.312 658.526 646.342 658.505 646.375 658.49C646.409 658.476 646.445 658.468 646.481 658.468C646.518 658.468 646.554 658.476 646.587 658.49C646.62 658.505 646.651 658.526 646.676 658.553L649.825 661.622C649.877 661.669 649.909 661.735 649.914 661.806C649.92 661.877 649.898 661.947 649.855 662.002C647.819 664.562 644.054 666.949 638.714 666.949C630.901 666.949 624.855 660.867 624.855 652.618C624.855 644.37 630.333 638.294 637.918 638.294C645.389 638.294 650.807 644.493 650.807 652.618C650.809 653.01 650.791 653.401 650.753 653.791L630.404 653.797ZM630.56 649.12H645.167C644.798 647.464 643.904 645.98 642.625 644.901C641.346 643.821 639.753 643.207 638.097 643.155C636.374 643.153 634.699 643.738 633.335 644.818C631.971 645.897 630.995 647.411 630.56 649.12V649.12Z" fill="white"/>
<path d="M606.01 638.299H605.411C603.96 638.287 602.521 638.564 601.173 639.115C599.97 639.543 598.833 640.144 597.796 640.901C597.756 640.932 597.709 640.951 597.659 640.956C597.609 640.96 597.559 640.95 597.514 640.928C597.47 640.905 597.432 640.869 597.406 640.826C597.379 640.782 597.365 640.732 597.365 640.68V639.165C597.365 639.091 597.337 639.02 597.287 638.967C597.236 638.914 597.168 638.884 597.096 638.882H592.391C592.319 638.884 592.25 638.914 592.2 638.967C592.149 639.02 592.121 639.091 592.121 639.165V679.947C592.12 679.984 592.127 680.02 592.14 680.055C592.153 680.089 592.173 680.12 592.198 680.146C592.223 680.173 592.253 680.193 592.286 680.208C592.319 680.222 592.355 680.229 592.391 680.229H597.276C597.312 680.23 597.348 680.223 597.382 680.21C597.416 680.196 597.446 680.175 597.472 680.149C597.498 680.122 597.518 680.091 597.532 680.056C597.545 680.021 597.552 679.984 597.551 679.947V664.702C597.551 664.651 597.564 664.601 597.59 664.558C597.615 664.514 597.652 664.479 597.696 664.455C597.74 664.432 597.789 664.421 597.839 664.425C597.888 664.428 597.936 664.446 597.976 664.475C600.342 666.111 603.138 666.968 605.992 666.93C613.918 666.93 619.851 660.792 619.851 652.599C619.851 644.406 613.936 638.299 606.01 638.299ZM606.01 661.689C601.047 661.689 597.569 657.656 597.569 652.63C597.569 647.597 601.047 643.565 606.01 643.565C610.973 643.565 614.451 647.603 614.451 652.63C614.451 657.656 610.973 661.689 606.01 661.689Z" fill="white"/>
<path d="M727.548 656.08L720.388 666.243C720.361 666.277 720.327 666.304 720.289 666.323C720.251 666.342 720.209 666.353 720.166 666.353H714.389C714.339 666.355 714.289 666.341 714.245 666.315C714.202 666.288 714.167 666.25 714.144 666.204C714.12 666.157 714.11 666.106 714.115 666.054C714.119 666.002 714.137 665.953 714.168 665.912L723.83 652.182C723.883 652.107 723.911 652.017 723.911 651.925C723.911 651.832 723.883 651.742 723.83 651.667L715.138 639.325C715.109 639.283 715.093 639.234 715.09 639.183C715.087 639.132 715.097 639.081 715.12 639.036C715.142 638.991 715.177 638.953 715.219 638.926C715.261 638.899 715.309 638.884 715.359 638.883H721.076C721.119 638.883 721.162 638.893 721.201 638.913C721.239 638.934 721.273 638.963 721.298 638.999L727.548 647.776L733.797 638.999C733.823 638.963 733.856 638.934 733.894 638.913C733.933 638.893 733.976 638.883 734.019 638.883H739.754C739.804 638.884 739.852 638.899 739.894 638.926C739.936 638.953 739.971 638.991 739.993 639.036C740.016 639.081 740.026 639.132 740.023 639.183C740.02 639.234 740.004 639.283 739.976 639.325L731.265 651.667C731.213 651.742 731.184 651.832 731.184 651.925C731.184 652.017 731.213 652.107 731.265 652.182L740.951 665.924C740.979 665.966 740.996 666.015 740.999 666.066C741.002 666.116 740.992 666.167 740.969 666.212C740.946 666.258 740.912 666.296 740.87 666.323C740.828 666.35 740.78 666.365 740.73 666.366H734.953C734.91 666.365 734.869 666.355 734.83 666.335C734.792 666.316 734.758 666.289 734.731 666.255L727.548 656.08Z" fill="white"/>
<path d="M757.043 638.3C764.975 638.3 770.908 644.437 770.908 652.624C770.908 660.811 764.975 666.955 757.043 666.955C749.111 666.955 743.184 660.818 743.184 652.624C743.184 644.431 749.117 638.3 757.043 638.3ZM757.043 661.689C762.006 661.689 765.496 657.651 765.496 652.624C765.496 647.598 762.006 643.535 757.043 643.535C752.08 643.535 748.602 647.573 748.602 652.6C748.602 657.626 752.08 661.689 757.043 661.689Z" fill="white"/>
<path d="M691.059 653.797C691.021 653.798 690.983 653.806 690.948 653.823C690.913 653.839 690.881 653.863 690.855 653.892C690.83 653.921 690.81 653.956 690.798 653.993C690.785 654.031 690.781 654.07 690.784 654.11C690.996 656.305 692 658.34 693.599 659.816C695.198 661.292 697.277 662.102 699.429 662.088C700.86 662.113 702.278 661.808 703.58 661.196C704.881 660.584 706.032 659.681 706.948 658.553C706.972 658.526 707.002 658.505 707.035 658.491C707.068 658.476 707.103 658.469 707.139 658.469C707.175 658.469 707.211 658.476 707.244 658.491C707.276 658.505 707.306 658.526 707.331 658.553L710.48 661.622C710.527 661.673 710.554 661.741 710.554 661.812C710.554 661.883 710.527 661.951 710.48 662.002C708.444 664.562 704.679 666.949 699.339 666.949C691.526 666.949 685.48 660.867 685.48 652.618C685.48 644.37 690.958 638.294 698.543 638.294C706.014 638.294 711.432 644.493 711.432 652.618C711.434 653.01 711.416 653.401 711.378 653.791L691.059 653.797ZM691.215 649.12H705.816C705.447 647.464 704.553 645.98 703.274 644.901C701.995 643.821 700.402 643.207 698.746 643.155C697.024 643.155 695.35 643.74 693.987 644.82C692.625 645.899 691.65 647.412 691.215 649.12V649.12Z" fill="white"/>
<path d="M657.738 638.883H662.725C662.796 638.883 662.865 638.912 662.915 638.964C662.966 639.016 662.994 639.086 662.994 639.159V641.749C662.993 641.806 663.01 641.863 663.042 641.91C663.074 641.958 663.119 641.993 663.172 642.013C663.225 642.033 663.282 642.035 663.336 642.019C663.39 642.004 663.438 641.972 663.473 641.927C664.399 640.795 665.559 639.887 666.868 639.269C668.178 638.651 669.605 638.339 671.046 638.355C677.811 638.355 680.625 643.75 680.625 649.556V666.09C680.625 666.163 680.596 666.233 680.546 666.285C680.495 666.337 680.427 666.366 680.355 666.366H675.398C675.327 666.366 675.258 666.337 675.208 666.285C675.157 666.233 675.129 666.163 675.129 666.09V650.409C675.129 646.34 673.171 643.615 669.49 643.615C665.521 643.615 662.994 645.953 662.994 650.93V666.09C662.994 666.163 662.966 666.233 662.915 666.285C662.865 666.337 662.796 666.366 662.725 666.366H657.738C657.667 666.366 657.598 666.337 657.548 666.285C657.497 666.233 657.469 666.163 657.469 666.09V639.159C657.469 639.086 657.497 639.016 657.548 638.964C657.598 638.912 657.667 638.883 657.738 638.883V638.883Z" fill="white"/>
<path d="M530.185 655.968C531.366 653.821 531.956 651.567 531.956 649.259C531.956 645.127 530.453 641.37 527.689 638.659C524.496 635.519 519.853 633.936 514.325 634.017C504.342 634.204 493.313 641.772 492.508 655.351C492.481 655.807 492.642 656.263 492.964 656.612C493.259 656.934 493.662 657.122 494.118 657.122H498.385C498.438 655.324 498.653 654.063 498.707 653.821C500.156 645.18 506.462 639.598 514.781 639.598C517.304 639.598 519.773 640.242 522.081 641.531C526.133 643.758 528.843 648.535 528.655 653.124V653.526C528.548 656.237 527.582 658.544 525.838 660.289C527.689 659.242 529.219 657.713 530.185 655.968Z" fill="white"/>
<path d="M525.864 646.87C524.79 645.045 523.287 643.516 521.516 642.549C519.369 641.369 517.115 640.778 514.807 640.778C510.675 640.778 506.918 642.281 504.207 645.045C501.067 648.239 499.457 652.881 499.565 658.409C499.752 668.392 507.32 679.422 520.899 680.227C521.355 680.254 521.811 680.093 522.16 679.771C522.482 679.475 522.67 679.073 522.67 678.617V674.35C520.872 674.296 519.611 674.081 519.369 674.028C510.728 672.579 505.146 666.272 505.146 657.926C505.146 655.404 505.79 652.962 507.079 650.627C509.306 646.575 514.083 643.864 518.672 644.052H519.074C521.785 644.16 524.119 645.126 525.864 646.87Z" fill="white"/>
<path d="M508.099 651.218C506.919 653.365 506.328 655.62 506.328 657.927C506.328 662.06 507.831 665.817 510.595 668.528C513.788 671.667 518.404 673.251 523.959 673.17C533.942 672.982 544.971 665.415 545.777 651.836C545.803 651.38 545.642 650.923 545.32 650.574C545.025 650.252 544.623 650.065 544.166 650.065H539.9C539.846 651.863 539.631 653.124 539.578 653.365C538.128 662.006 531.822 667.588 523.503 667.588C520.98 667.588 518.512 666.944 516.204 665.656C512.151 663.429 509.441 658.652 509.629 654.036C509.629 651.165 510.622 648.696 512.447 646.871C510.568 647.945 509.065 649.447 508.099 651.218Z" fill="white"/>
<path d="M538.693 648.775C538.505 638.793 530.937 627.763 517.358 626.958C516.902 626.931 516.446 627.092 516.097 627.414C515.775 627.709 515.587 628.112 515.587 628.568V632.835C517.385 632.889 518.646 633.103 518.888 633.157C527.529 634.606 533.111 640.913 533.111 649.258C533.111 651.781 532.467 654.223 531.179 656.558C528.924 660.637 524.228 663.32 519.586 663.133H519.183C516.473 663.025 514.165 662.059 512.42 660.315C513.494 662.14 514.997 663.669 516.768 664.635C518.915 665.816 521.169 666.407 523.477 666.407C527.609 666.407 531.366 664.904 534.077 662.14C537.217 658.919 538.8 654.304 538.693 648.775Z" fill="white"/>
<path d="M226.481 631.797H235.708C242.496 631.797 247.004 635.297 247.004 641.289C247.004 647.281 242.549 650.702 235.708 650.702H229.822V665.391H226.588L226.481 631.797ZM235.708 647.706C241.011 647.706 243.663 645.478 243.663 641.395C243.663 637.312 240.879 634.979 235.708 634.979H229.822V647.706H235.708Z" fill="white"/>
<path d="M249.655 653.459C249.8 651.212 250.599 649.056 251.955 647.258C253.311 645.46 255.163 644.098 257.283 643.34C259.404 642.583 261.7 642.462 263.889 642.994C266.077 643.526 268.061 644.687 269.597 646.333C271.134 647.98 272.155 650.04 272.534 652.26C272.913 654.48 272.634 656.762 271.731 658.825C270.828 660.888 269.342 662.642 267.454 663.87C265.567 665.098 263.361 665.746 261.109 665.736C259.538 665.724 257.985 665.393 256.546 664.761C255.107 664.129 253.812 663.211 252.74 662.062C251.668 660.913 250.841 659.558 250.311 658.079C249.78 656.599 249.557 655.028 249.655 653.459V653.459ZM269.408 653.459C269.408 648.156 266.306 644.02 261.109 644.02C255.912 644.02 252.916 648.209 252.916 653.459C252.916 658.709 255.992 663.005 261.109 663.005C266.226 663.005 269.408 658.709 269.408 653.459Z" fill="white"/>
<path d="M275.533 641.634H278.927L284.23 660.671L290.593 641.634H293.457L299.794 660.645L305.097 641.634H308.464L301.518 665.497H298.548L292.052 646.062L285.556 665.55H282.586L275.533 641.634Z" fill="white"/>
<path d="M311.302 653.619C311.302 646.911 315.094 641.264 321.908 641.264C329.65 641.264 332.196 647.521 332.196 652.241C332.214 652.951 332.161 653.662 332.037 654.362H314.67C314.908 659.665 317.666 662.9 322.438 662.9C323.754 662.956 325.065 662.714 326.273 662.19C327.481 661.667 328.554 660.876 329.412 659.877L331.586 661.812C330.448 663.112 329.033 664.139 327.445 664.818C325.857 665.497 324.137 665.811 322.412 665.737C315.226 665.737 311.302 660.46 311.302 653.619ZM329.173 652.029C329.226 651.526 329.226 651.02 329.173 650.517C329.139 649.616 328.927 648.731 328.55 647.912C328.172 647.094 327.637 646.358 326.974 645.747C326.311 645.135 325.534 644.661 324.688 644.352C323.841 644.042 322.941 643.903 322.041 643.942C317.719 643.942 315.094 647.282 314.696 652.029H329.173Z" fill="white"/>
<path d="M338.77 641.634H341.818V646.565C342.324 645.018 343.307 643.671 344.627 642.718C345.947 641.765 347.535 641.255 349.163 641.263C350.49 641.241 351.789 641.64 352.875 642.403L351.444 645.054C350.628 644.615 349.718 644.379 348.792 644.365C345.61 644.365 341.872 646.857 341.872 653.327V665.444H338.823L338.77 641.634Z" fill="white"/>
<path d="M354.016 653.619C354.016 646.911 357.807 641.264 364.621 641.264C372.364 641.264 374.909 647.521 374.909 652.241C374.914 652.951 374.86 653.66 374.75 654.362H357.25C357.489 659.665 360.246 662.9 365.019 662.9C366.334 662.956 367.645 662.714 368.853 662.19C370.061 661.667 371.135 660.876 371.993 659.877L374.166 661.812C373.028 663.112 371.614 664.139 370.026 664.818C368.438 665.497 366.718 665.811 364.992 665.737C357.939 665.737 354.016 660.46 354.016 653.619ZM371.886 652.029C371.94 651.526 371.94 651.02 371.886 650.517C371.852 649.616 371.64 648.731 371.263 647.912C370.886 647.094 370.35 646.358 369.687 645.747C369.025 645.135 368.247 644.661 367.4 644.352C366.554 644.042 365.654 643.903 364.754 643.942C360.432 643.942 357.807 647.282 357.41 652.029H371.886Z" fill="white"/>
<path d="M379.523 653.486C379.523 646.778 383.686 641.263 390.129 641.263C391.944 641.239 393.725 641.76 395.241 642.757C396.758 643.754 397.941 645.182 398.64 646.857V631.797H401.848V665.391H398.879V660.088C398.2 661.806 397.015 663.277 395.48 664.304C393.946 665.332 392.135 665.868 390.288 665.842C383.606 665.736 379.523 660.247 379.523 653.486ZM398.826 653.486C398.826 648.183 395.776 644.126 390.871 644.126C385.966 644.126 382.758 648.236 382.758 653.486C382.758 658.736 385.94 662.899 390.871 662.899C395.803 662.899 398.826 658.842 398.826 653.486V653.486Z" fill="white"/>
<path d="M426.03 660.141V665.444H422.795V631.797H426.03V646.857C426.721 645.182 427.899 643.753 429.412 642.755C430.925 641.757 432.703 641.237 434.515 641.263C440.931 641.263 444.617 646.751 444.617 653.486C444.617 660.22 440.931 665.736 434.568 665.736C432.748 665.764 430.962 665.246 429.44 664.249C427.918 663.252 426.73 661.821 426.03 660.141V660.141ZM441.462 653.486C441.462 648.183 438.81 644.126 433.825 644.126C428.841 644.126 425.871 648.183 425.871 653.486C425.871 658.789 428.973 662.819 433.825 662.819C438.677 662.819 441.488 658.762 441.488 653.486H441.462Z" fill="white"/>
<path d="M456.866 665.127L446.765 641.661H450.212L458.537 661.441L465.855 641.661H469.276L456.256 675.6H452.837L456.866 665.127Z" fill="white"/>
<path d="M307.366 558.923V456.46H338.893C347.901 456.46 355.947 458.501 363.031 462.582C370.162 466.617 375.722 472.388 379.709 479.894C383.697 487.354 385.691 495.845 385.691 505.369V510.084C385.691 519.608 383.721 528.076 379.78 535.488C375.886 542.901 370.373 548.648 363.242 552.73C356.111 556.811 348.065 558.876 339.104 558.923H307.366ZM328.478 473.56V541.963H338.682C346.939 541.963 353.249 539.265 357.612 533.87C361.975 528.475 364.204 520.757 364.298 510.717V505.299C364.298 494.883 362.14 487.002 357.823 481.653C353.507 476.258 347.197 473.56 338.893 473.56H328.478Z" fill="#F7CD80"/>
<path d="M445.367 551.182C440.347 557.281 433.404 560.33 424.537 560.33C416.374 560.33 410.134 557.984 405.818 553.293C401.548 548.601 399.367 541.728 399.273 532.674V482.779H419.611V531.97C419.611 539.898 423.223 543.863 430.448 543.863C437.345 543.863 442.083 541.47 444.663 536.685V482.779H465.071V558.923H445.93L445.367 551.182Z" fill="#F7CD80"/>
<path d="M549.026 521.555C549.026 533.753 546.422 543.276 541.215 550.126C536.007 556.929 528.735 560.33 519.399 560.33C511.142 560.33 504.551 557.163 499.624 550.83L498.71 558.923H480.413V450.83H500.75V489.605C505.442 484.116 511.611 481.372 519.258 481.372C528.548 481.372 535.819 484.797 541.074 491.646C546.375 498.449 549.026 508.043 549.026 520.429V521.555ZM528.688 520.077C528.688 512.383 527.469 506.776 525.029 503.258C522.589 499.692 518.953 497.909 514.121 497.909C507.647 497.909 503.19 500.56 500.75 505.862V535.911C503.237 541.259 507.741 543.933 514.262 543.933C520.83 543.933 525.146 540.696 527.211 534.222C528.196 531.125 528.688 526.41 528.688 520.077Z" fill="#F7CD80"/>
<path d="M605.746 558.923C604.808 557.093 604.128 554.817 603.706 552.096C598.78 557.585 592.376 560.33 584.494 560.33C577.034 560.33 570.842 558.172 565.915 553.856C561.036 549.54 558.597 544.097 558.597 537.529C558.597 529.46 561.576 523.267 567.534 518.951C573.539 514.635 582.195 512.453 593.502 512.406H602.861V508.043C602.861 504.524 601.946 501.71 600.117 499.598C598.334 497.487 595.495 496.432 591.602 496.432C588.177 496.432 585.479 497.253 583.509 498.895C581.585 500.537 580.623 502.789 580.623 505.65H560.286C560.286 501.24 561.646 497.159 564.367 493.406C567.088 489.652 570.935 486.72 575.908 484.609C580.881 482.451 586.464 481.372 592.657 481.372C602.04 481.372 609.476 483.741 614.965 488.479C620.501 493.171 623.269 499.786 623.269 508.325V541.329C623.316 548.554 624.325 554.02 626.295 557.726V558.923H605.746ZM588.927 544.778C591.93 544.778 594.698 544.121 597.231 542.807C599.765 541.447 601.641 539.64 602.861 537.388V524.299H595.261C585.08 524.299 579.662 527.818 579.005 534.855L578.934 536.051C578.934 538.585 579.826 540.673 581.609 542.315C583.391 543.957 585.831 544.778 588.927 544.778Z" fill="#F7CD80"/>
<path d="M660.356 558.923H639.948V482.779H660.356V558.923ZM638.751 463.075C638.751 460.025 639.76 457.515 641.777 455.545C643.842 453.575 646.633 452.589 650.152 452.589C653.623 452.589 656.391 453.575 658.456 455.545C660.52 457.515 661.552 460.025 661.552 463.075C661.552 466.171 660.496 468.705 658.385 470.675C656.321 472.646 653.576 473.631 650.152 473.631C646.727 473.631 643.959 472.646 641.848 470.675C639.783 468.705 638.751 466.171 638.751 463.075Z" fill="#F7CD80"/>
<path d="M135.222 355.659L112.314 387.476C112.233 387.583 112.128 387.669 112.009 387.729C111.889 387.789 111.758 387.82 111.624 387.821H93.0642C92.9039 387.821 92.7468 387.777 92.6098 387.694C92.4727 387.611 92.3613 387.492 92.2874 387.349C92.2135 387.207 92.1802 387.047 92.1909 386.887C92.2017 386.727 92.2559 386.573 92.3482 386.442L123.237 343.595C123.406 343.364 123.496 343.085 123.496 342.799C123.496 342.514 123.406 342.235 123.237 342.004L95.4502 303.505C95.3579 303.374 95.3037 303.22 95.2929 303.06C95.2822 302.9 95.3155 302.74 95.3894 302.598C95.4633 302.455 95.5747 302.336 95.7118 302.253C95.8488 302.17 96.0059 302.126 96.1662 302.126H114.435C114.572 302.126 114.706 302.159 114.827 302.224C114.947 302.289 115.05 302.383 115.125 302.497L135.116 329.834L155.082 302.497C155.165 302.385 155.273 302.294 155.397 302.23C155.521 302.166 155.658 302.13 155.797 302.126H174.066C174.227 302.126 174.384 302.17 174.521 302.253C174.658 302.336 174.769 302.455 174.843 302.598C174.917 302.74 174.95 302.9 174.94 303.06C174.929 303.22 174.875 303.374 174.782 303.505L146.995 342.004C146.827 342.235 146.736 342.514 146.736 342.799C146.736 343.085 146.827 343.364 146.995 343.595L177.884 386.442C177.977 386.573 178.031 386.727 178.042 386.887C178.052 387.047 178.019 387.207 177.945 387.349C177.871 387.492 177.76 387.611 177.623 387.694C177.486 387.777 177.329 387.821 177.168 387.821H158.608C158.475 387.82 158.343 387.789 158.224 387.729C158.104 387.669 158 387.583 157.919 387.476L135.222 355.659Z" fill="white"/>
<path d="M229.666 300.217C255.014 300.217 273.972 319.36 273.972 344.894C273.972 370.427 255.014 389.571 229.666 389.571C204.318 389.571 185.36 370.427 185.36 344.894C185.36 319.36 204.318 300.217 229.666 300.217ZM229.666 373.158C245.575 373.158 256.658 360.591 256.658 344.894C256.658 329.197 245.548 316.629 229.666 316.629C213.784 316.629 202.674 329.224 202.674 344.894C202.674 360.564 213.81 373.158 229.666 373.158Z" fill="white"/>
<path d="M18.5835 348.553C18.4605 348.552 18.3392 348.577 18.2262 348.626C18.1132 348.675 18.0109 348.746 17.9265 348.835C17.842 348.925 17.7769 349.03 17.7348 349.146C17.6928 349.261 17.6752 349.384 17.6824 349.507C18.3564 356.361 21.5659 362.716 26.6816 367.326C31.7973 371.937 38.4503 374.47 45.3369 374.431C49.9085 374.506 54.4387 373.557 58.5955 371.653C62.7524 369.749 66.4306 366.938 69.3593 363.427C69.4384 363.345 69.5329 363.28 69.6377 363.236C69.7424 363.192 69.8553 363.169 69.9691 363.169C70.0829 363.169 70.1951 363.192 70.2999 363.236C70.4046 363.28 70.4998 363.345 70.5789 363.427L80.6545 373.026C80.8055 373.188 80.8889 373.401 80.8889 373.622C80.8889 373.844 80.8055 374.057 80.6545 374.219C74.132 382.173 62.0939 389.624 45.045 389.624C39.166 389.73 33.3269 388.643 27.8791 386.431C22.4314 384.218 17.4882 380.925 13.3479 376.75C9.20756 372.575 5.95578 367.605 3.7888 362.139C1.62183 356.673 0.584302 350.824 0.739236 344.947C0.739236 319.254 18.2389 300.27 42.4997 300.27C66.3628 300.27 83.7035 319.599 83.7035 344.947C83.7139 346.169 83.6518 347.391 83.5177 348.606L18.5835 348.553ZM19.0612 333.97H65.8061C64.631 328.804 61.7705 324.177 57.6757 320.817C53.5808 317.456 48.4843 315.554 43.1891 315.409C37.6818 315.403 32.3278 317.22 27.9626 320.578C23.5975 323.936 20.4673 328.645 19.0612 333.97V333.97Z" fill="white"/>
<path d="M326.047 334.899H325.649C316.13 332.248 307.991 330.1 307.991 323.18C307.991 317.32 313.824 313.369 322.494 313.369C326.465 313.366 330.357 314.478 333.727 316.578C337.097 318.678 339.811 321.682 341.558 325.248C341.714 325.527 341.975 325.734 342.282 325.823C342.59 325.912 342.92 325.877 343.202 325.725L354.365 319.68C354.508 319.603 354.634 319.498 354.734 319.37C354.835 319.242 354.908 319.095 354.948 318.937C355.012 318.796 355.046 318.642 355.046 318.487C355.046 318.331 355.012 318.177 354.948 318.036C351.923 312.266 347.334 307.465 341.707 304.182C336.079 300.9 329.642 299.269 323.13 299.476C307.566 299.476 291.87 307.43 291.87 325.115C291.87 342.8 306.877 346.725 320.107 350.039C330.342 352.69 339.172 354.811 339.172 362.925C339.172 368.758 334.85 375.546 322.627 375.546C317.889 375.679 313.235 374.273 309.363 371.539C305.491 368.804 302.609 364.889 301.15 360.38C301.096 360.223 301.008 360.081 300.894 359.962C300.779 359.843 300.641 359.75 300.487 359.69C300.336 359.624 300.174 359.59 300.01 359.59C299.845 359.59 299.682 359.624 299.532 359.69L287.813 364.807C287.539 364.93 287.32 365.149 287.198 365.423C287.075 365.697 287.058 366.007 287.15 366.292C291.843 380.531 306.373 390.155 323.316 390.155C339.516 390.155 355.849 381.538 355.849 362.289C355.849 343.039 339.967 338.638 326.047 334.899Z" fill="white"/>
<path d="M445.841 302.126H431.496C431.177 302.126 430.871 302.251 430.643 302.474C430.415 302.697 430.283 303 430.277 303.319V351.045C430.277 365.628 422.587 374.007 409.198 374.007C397.505 374.007 390.797 366.053 390.797 352.345V303.319C390.79 303 390.658 302.697 390.43 302.474C390.202 302.251 389.896 302.126 389.577 302.126H375.232C374.913 302.126 374.607 302.251 374.379 302.474C374.151 302.697 374.02 303 374.013 303.319V355.023C374.331 376.897 386.024 389.942 405.273 389.942C410.062 390.029 414.807 389.015 419.142 386.978C423.477 384.942 427.286 381.937 430.277 378.196V386.495C430.283 386.814 430.415 387.118 430.643 387.341C430.871 387.564 431.177 387.689 431.496 387.688H445.841C446.16 387.689 446.466 387.564 446.694 387.341C446.922 387.118 447.054 386.814 447.06 386.495V303.319C447.054 303 446.922 302.697 446.694 302.474C446.466 302.251 446.16 302.126 445.841 302.126V302.126Z" fill="white"/>
<path d="M565.686 299.316C560.039 299.136 554.453 300.528 549.552 303.337C544.65 306.146 540.625 310.262 537.926 315.225C533.498 305.017 524.27 299.316 511.888 299.316C507.301 299.12 502.738 300.072 498.613 302.086C494.487 304.101 490.93 307.113 488.264 310.85V301.994C488.267 301.833 488.238 301.673 488.178 301.523C488.118 301.374 488.028 301.238 487.914 301.124C487.8 301.01 487.664 300.92 487.515 300.86C487.365 300.8 487.205 300.771 487.044 300.774H473.044C472.728 300.775 472.423 300.898 472.196 301.119C471.961 301.35 471.828 301.665 471.824 301.994V386.496C471.824 386.813 471.95 387.116 472.174 387.34C472.398 387.564 472.701 387.689 473.018 387.689H487.548C487.867 387.689 488.173 387.564 488.401 387.341C488.629 387.118 488.76 386.815 488.767 386.496V337.921C488.767 324.346 496.881 315.225 508.971 315.225C520.107 315.225 525.782 322.41 525.782 336.437V386.496C525.782 386.813 525.907 387.116 526.131 387.34C526.355 387.564 526.658 387.689 526.975 387.689H541.425C541.741 387.689 542.045 387.564 542.269 387.34C542.493 387.116 542.619 386.813 542.619 386.496V337.921C542.619 324.346 550.705 315.225 562.769 315.225C574.277 315.225 579.633 322.702 579.633 338.69V386.417C579.64 386.735 579.771 387.039 579.999 387.262C580.227 387.485 580.534 387.61 580.852 387.61H595.382C595.699 387.61 596.002 387.484 596.226 387.26C596.45 387.036 596.575 386.733 596.575 386.417V336.993C596.682 313.051 585.493 299.316 565.686 299.316Z" fill="white"/>
<path d="M715.414 299.315C709.767 299.134 704.181 300.526 699.279 303.335C694.377 306.145 690.352 310.26 687.653 315.224C683.199 305.015 673.998 299.315 661.616 299.315C657.028 299.116 652.465 300.068 648.339 302.082C644.213 304.096 640.656 307.11 637.991 310.849V301.993C637.991 301.669 637.863 301.359 637.634 301.13C637.405 300.902 637.095 300.773 636.772 300.773H622.613C622.296 300.773 621.991 300.897 621.764 301.118C621.646 301.23 621.551 301.366 621.488 301.517C621.424 301.667 621.392 301.829 621.393 301.993V386.495C621.4 386.814 621.532 387.117 621.759 387.34C621.987 387.563 622.294 387.688 622.613 387.688H637.143C637.459 387.688 637.762 387.562 637.986 387.338C638.21 387.115 638.336 386.811 638.336 386.495V337.92C638.336 324.345 646.476 315.224 658.567 315.224C669.703 315.224 675.35 322.409 675.35 336.435V386.495C675.357 386.814 675.489 387.117 675.717 387.34C675.945 387.563 676.251 387.688 676.57 387.688H690.994C691.153 387.691 691.311 387.663 691.459 387.605C691.606 387.546 691.741 387.459 691.855 387.348C691.968 387.237 692.059 387.104 692.12 386.958C692.182 386.811 692.213 386.654 692.213 386.495V337.92C692.213 324.345 700.301 315.224 712.338 315.224C723.872 315.224 729.228 322.701 729.228 338.689V386.415C729.235 386.734 729.366 387.038 729.594 387.261C729.822 387.484 730.128 387.608 730.447 387.608H744.951C745.11 387.612 745.268 387.584 745.415 387.525C745.563 387.467 745.698 387.38 745.812 387.268C745.925 387.157 746.015 387.024 746.077 386.878C746.139 386.731 746.171 386.574 746.171 386.415V336.992C746.33 313.049 735.034 299.315 715.414 299.315Z" fill="white"/>
<path d="M913.874 334.898C904.196 332.246 895.818 330.072 895.818 323.072C895.818 317.213 901.651 313.262 910.321 313.262C914.289 313.274 918.174 314.398 921.534 316.507C924.895 318.616 927.596 321.626 929.332 325.193C929.404 325.335 929.505 325.46 929.628 325.561C929.752 325.661 929.894 325.735 930.048 325.777C930.346 325.894 930.678 325.894 930.976 325.777L942.139 319.731C942.282 319.655 942.408 319.55 942.509 319.422C942.609 319.294 942.682 319.147 942.722 318.989C942.786 318.848 942.82 318.694 942.82 318.538C942.82 318.383 942.786 318.229 942.722 318.087C939.697 312.318 935.108 307.517 929.481 304.234C923.854 300.952 917.416 299.32 910.904 299.527C895.34 299.527 879.644 307.482 879.644 325.167C879.644 342.852 894.651 346.776 907.882 350.091C918.117 352.742 926.946 354.863 926.946 362.977C926.946 368.81 922.624 375.598 910.401 375.598C905.664 375.726 901.012 374.319 897.141 371.585C893.27 368.851 890.387 364.939 888.924 360.431C888.87 360.275 888.782 360.133 888.668 360.014C888.553 359.895 888.415 359.802 888.261 359.742C888.112 359.669 887.949 359.632 887.784 359.632C887.618 359.632 887.455 359.669 887.307 359.742L875.613 364.859C875.335 364.977 875.11 365.194 874.983 365.469C874.855 365.743 874.834 366.055 874.924 366.344C879.617 380.582 894.147 390.207 911.09 390.207C927.291 390.207 943.624 381.59 943.624 362.34C943.624 343.091 927.794 338.504 913.874 334.898Z" fill="white"/>
<path d="M860.369 302.047H838.919V273.437C838.919 273.121 838.793 272.817 838.569 272.594C838.345 272.37 838.042 272.244 837.725 272.244H823.726C823.412 272.251 823.112 272.379 822.89 272.601C822.667 272.823 822.539 273.123 822.532 273.437V302.047H809.726C809.412 302.053 809.112 302.181 808.89 302.403C808.668 302.626 808.54 302.925 808.533 303.24V315.251C808.54 315.563 808.669 315.859 808.892 316.077C809.115 316.295 809.414 316.418 809.726 316.417H822.374V363.613C822.374 380.132 831.521 389.624 847.456 389.624C851.959 389.634 856.434 388.927 860.714 387.529C860.936 387.438 861.126 387.284 861.263 387.086C861.399 386.889 861.475 386.656 861.483 386.416V373.503C861.485 373.302 861.435 373.103 861.337 372.926C861.24 372.749 861.097 372.601 860.925 372.496C860.749 372.405 860.554 372.358 860.356 372.358C860.157 372.358 859.962 372.405 859.785 372.496C856.669 373.889 853.308 374.655 849.896 374.75C842.418 374.75 838.919 370.481 838.919 361.333V316.417H860.369C860.681 316.418 860.98 316.295 861.203 316.077C861.426 315.859 861.555 315.563 861.562 315.251V303.24C861.562 302.923 861.437 302.62 861.213 302.396C860.989 302.172 860.685 302.047 860.369 302.047V302.047Z" fill="white"/>
<path d="M786.923 272.271H772.101C771.442 272.271 770.908 272.805 770.908 273.464V288.047C770.908 288.706 771.442 289.24 772.101 289.24H786.923C787.582 289.24 788.116 288.706 788.116 288.047V273.464C788.116 272.805 787.582 272.271 786.923 272.271Z" fill="white"/>
<path d="M786.633 301.782H772.474C771.815 301.782 771.281 302.316 771.281 302.975V386.629C771.281 387.288 771.815 387.822 772.474 387.822H786.633C787.292 387.822 787.826 387.288 787.826 386.629V302.975C787.826 302.316 787.292 301.782 786.633 301.782Z" fill="white"/>
<path d="M460.963 1.91169C455.494 3.37752 450.37 5.91382 445.888 9.37365C441.407 12.8335 437.656 17.1481 434.853 22.0676L370.455 134.91C366.198 140.237 363.274 146.504 361.928 153.189C360.583 159.874 360.854 166.784 362.72 173.343C364.585 179.902 367.991 185.921 372.653 190.897C377.315 195.874 383.099 199.665 389.522 201.954C395.463 204.258 401.85 205.176 408.199 204.639H540.497C541.82 204.639 543.143 204.639 544.388 204.444H544.622C550.663 203.813 556.507 201.931 561.782 198.919C562.366 198.568 562.91 198.14 563.494 197.751L564.933 196.779C567.907 194.708 570.601 192.263 572.949 189.502L573.61 188.685C574.311 187.829 574.972 186.973 575.595 186.078L576.528 184.638C577.034 183.821 577.58 183.004 578.047 182.148C578.513 181.292 579.369 179.541 579.953 178.257L580.614 176.506C580.964 175.494 581.315 174.483 581.626 173.432L582.093 171.564C582.357 170.525 582.564 169.473 582.716 168.412C582.716 167.751 582.949 167.128 583.027 166.506C583.027 165.261 583.104 163.964 583.26 162.615C583.26 162.226 583.26 161.798 583.26 161.408C583.26 161.019 583.26 160.319 583.26 159.813C583.26 158.724 583.261 157.673 583.066 156.622C582.872 155.572 582.832 155.144 582.716 154.404C582.599 153.665 582.405 152.537 582.171 151.642C581.938 150.747 581.821 150.202 581.626 149.501C581.431 148.801 580.964 147.439 580.614 146.428C580.264 145.416 580.226 145.299 579.992 144.754C579.37 143.29 578.669 141.862 577.891 140.474L577.579 139.891L509.757 22.0676C509.757 21.8342 509.485 21.6397 509.368 21.4451C508.823 20.5502 508.24 19.6551 507.656 18.7991L507.228 18.1765C502.115 11.0591 494.94 5.6828 486.673 2.77404C478.406 -0.134721 469.445 -0.435751 461.002 1.91169H460.963ZM502.209 22.6124C502.715 23.3128 503.181 24.0521 503.648 24.7914C505.37 27.6269 506.68 30.6926 507.539 33.8966C508.834 38.5127 509.195 43.3408 508.6 48.0981C508.006 52.8553 506.468 57.446 504.076 61.6013L472.48 116.855L440.768 61.9127C435.867 53.8004 434.31 44.1011 436.426 34.8624C438.541 25.6237 444.164 17.5686 452.107 12.3978C460.05 7.22697 469.692 5.34504 478.996 7.14928C488.301 8.95353 496.54 14.3027 501.975 22.0676L502.209 22.6124ZM572.793 144.716C573.182 145.455 573.572 146.233 573.922 147.011L574.194 147.751C574.545 148.646 574.895 149.502 575.167 150.435C575.184 150.591 575.184 150.747 575.167 150.902C575.44 151.875 575.712 152.926 575.945 153.937C575.964 154.04 575.964 154.146 575.945 154.249C576.174 155.341 576.342 156.445 576.451 157.556C576.467 157.646 576.467 157.738 576.451 157.829C576.509 158.956 576.509 160.086 576.451 161.214V161.72C576.451 162.809 576.451 163.86 576.451 164.871C576.431 165.13 576.431 165.391 576.451 165.65C576.451 166.584 576.179 167.517 576.023 168.412C575.94 168.706 575.875 169.005 575.828 169.307C575.634 170.202 575.401 171.058 575.128 171.914L574.894 172.693C574.583 173.626 574.272 174.521 573.922 175.377C573.84 175.526 573.775 175.682 573.727 175.844C573.26 176.856 572.794 177.829 572.288 178.802C569.739 183.477 566.206 187.543 561.934 190.721C557.661 193.898 552.751 196.111 547.54 197.207V197.207C546.421 197.435 545.292 197.604 544.155 197.712H543.532C542.586 197.77 541.637 197.77 540.691 197.712C537.368 197.764 534.053 197.345 530.847 196.467C526.207 195.246 521.855 193.118 518.041 190.206C514.228 187.295 511.029 183.657 508.629 179.502L476.994 124.676H540.225C546.761 124.676 553.177 126.43 558.804 129.757C564.43 133.083 569.06 137.86 572.21 143.587C572.435 143.947 572.63 144.324 572.793 144.716V144.716ZM404.347 197.907C400.082 197.902 395.853 197.138 391.856 195.65C390.088 194.987 388.371 194.194 386.72 193.276C382.552 190.898 378.895 187.722 375.957 183.928C373.018 180.135 370.856 175.8 369.595 171.17C368.333 166.54 367.997 161.707 368.606 156.948C369.214 152.188 370.755 147.595 373.14 143.431L376.019 138.334C379.44 134.118 383.757 130.719 388.658 128.383C393.558 126.047 398.918 124.834 404.347 124.832H467.889L436.76 179.658C434.384 183.829 431.203 187.486 427.403 190.418C423.602 193.351 419.257 195.499 414.62 196.74C412.466 197.32 410.266 197.71 408.044 197.907H404.347ZM384.891 122.964L429.367 45.142C429.588 52.2042 431.552 59.1021 435.087 65.2201L465.671 118.217H404.425C397.615 118.166 390.892 119.74 384.813 122.809L384.891 122.964ZM540.536 118.217H479.523L509.991 64.9088C513.46 58.8263 515.384 51.9855 515.594 44.9863L560.77 123.275C554.476 119.909 547.44 118.17 540.303 118.217H540.536ZM428.044 197.907C433.939 194.163 438.828 189.033 442.285 182.965L472.48 130.124L502.987 182.965C506.499 189.056 511.457 194.188 517.423 197.907H428.044Z" fill="white"/>
</svg>
